<svg width="1412" height="813" viewBox="0 0 1412 813" fill="none" xmlns="http://www.w3.org/2000/svg">
<g opacity="0.4" clip-path="url(#clip0_9_101)">
<path d="M541.643 -29C544.061 -25.2671 547.481 -22.4352 550.593 -19.3479C562.42 -7.62443 575.283 2.85005 589.293 11.91C591.366 13.2516 593.105 14.9496 594.915 16.569C616.683 36.067 641.379 50.8104 668.608 61.4504C677.362 64.8718 686.323 67.6728 695.295 70.4655C699.581 71.8014 703.631 73.8756 707.816 75.5427C725.059 82.4134 742.901 87.2718 761.049 91.0692C780.286 95.0968 799.743 97.8249 819.164 100.763C833.38 102.913 847.581 105.156 861.597 108.423C863.3 108.819 864.136 109.621 864.768 111.109C867.92 118.518 870.329 126.189 872.975 133.775C878.064 148.365 884.133 162.533 891.684 176.052C897.219 185.96 903.415 195.427 910.608 204.234C911.5 205.326 912.282 206.474 912.983 207.703C922.841 224.992 934.773 240.636 950.036 253.617C955.193 258.001 960.643 261.992 966.455 265.475C968.322 266.595 969.982 267.909 971.547 269.419C985.043 282.442 1000.51 292.285 1018.5 298.019C1019.94 298.476 1021.36 299.026 1022.83 299.282C1028.54 300.273 1033.71 302.588 1038.92 305.021C1052.75 311.48 1067.32 314.755 1082.68 313.958C1084.74 313.851 1086.83 313.663 1088.83 313.192C1090.63 312.765 1092.3 312.824 1094.09 313.214C1102.97 315.139 1111.93 315.942 1120.98 314.528C1122.74 314.253 1124.49 313.919 1125.99 312.813C1127.09 312.007 1128.49 312.047 1129.76 311.805C1143.89 309.1 1158.06 306.644 1172.3 304.659C1183.29 303.13 1194.31 301.833 1205.38 300.969C1214 300.295 1222.64 299.756 1231.29 299.686C1236.58 299.644 1241.78 300.517 1246.99 301.246C1254.25 302.262 1261.44 303.711 1268.53 305.574C1269.44 305.81 1270.34 306.099 1271.18 306.495C1277.4 309.417 1283.41 312.706 1289.2 316.388C1290.24 317.051 1291.15 317.848 1292.04 318.681C1301.24 327.306 1309.66 336.627 1317.1 346.782C1321.03 352.148 1324.09 358.084 1327.31 363.894C1338.43 383.976 1347.82 404.86 1356.58 426.048C1363.8 443.5 1373.1 459.806 1384.23 475.103C1388.25 480.626 1391.83 486.467 1395.72 492.086C1400.2 498.558 1405.21 504.626 1410.37 510.57C1410.81 511.07 1411.25 511.556 1411.99 511.567V498.656C1410.91 498.67 1410.37 497.831 1409.69 497.208C1407.97 495.622 1406.63 493.672 1404.99 492.046C1399.8 486.922 1395.3 481.21 1390.85 475.49C1384.39 467.177 1378.77 458.274 1373.55 449.135C1372.67 447.597 1371.92 445.986 1371.92 444.151C1371.47 443.334 1371.07 442.481 1370.56 441.703C1360.77 426.988 1353.22 411.139 1346.58 394.838C1338.45 374.91 1329.18 355.525 1318.81 336.655C1317.61 334.466 1316.55 332.162 1314.93 330.214C1313.82 330.287 1313.23 329.56 1312.69 328.769C1309.05 323.458 1305.09 318.392 1301.1 313.343C1296.51 307.55 1291.46 302.184 1286.47 296.764C1284.19 294.294 1281.6 292.114 1279.11 289.851C1275.09 286.208 1271.02 282.644 1266.71 279.349C1258.45 273.023 1249.66 267.493 1240.42 262.691C1229.66 257.1 1218.46 252.596 1206.77 249.281C1200.83 247.597 1194.84 246.171 1188.8 244.88C1183.77 243.805 1178.69 243.087 1173.63 242.264C1169.86 241.652 1166.01 241.476 1162.22 240.984C1159.42 240.622 1156.59 240.695 1153.83 240.339C1148.43 239.643 1142.99 239.626 1137.59 239.43C1127.93 239.079 1118.25 239.323 1108.58 239.78C1103.81 240.008 1099.05 240.513 1094.26 240.569C1092.06 240.594 1089.76 240.712 1087.56 241.069C1082.85 241.835 1078.08 241.925 1073.36 242.537C1069.3 243.061 1065.17 243.376 1061.11 243.909C1058.71 244.223 1056.28 244.232 1053.88 244.771C1050.89 245.441 1047.79 245.627 1044.74 246.056C1040.3 246.679 1035.87 247.308 1031.44 247.982C1027.29 248.613 1023.16 249.738 1019 249.873C1013.49 250.05 1007.95 250.297 1002.4 249.531C998.233 248.955 994.079 248.338 989.996 247.387C982.868 245.728 976.009 243.328 969.299 240.325C960.338 236.314 952.058 231.285 944.247 225.444C941.036 223.041 937.89 220.524 934.942 217.815C932.875 215.915 930.664 214.178 928.673 212.208C927.215 210.765 926.089 209.031 924.595 207.591C920.822 203.948 917.668 199.757 914.502 195.615C910.935 190.947 907.6 186.109 904.505 181.099C901.802 176.726 899.371 172.207 896.807 167.761C896.166 166.65 895.666 165.398 895.81 164.029C895.205 163.085 894.638 162.114 893.988 161.202C888.465 153.402 883.548 145.241 879.165 136.759C873.28 125.372 868.14 113.668 863.958 101.549C861.128 93.3538 858.443 85.0994 854.992 77.1257C854.331 77.0976 853.673 77.0724 853.187 76.511C849.649 72.4245 846.071 68.4082 841.996 64.7876C837.641 60.9228 833.08 57.3415 828.183 54.2738C822.324 50.5999 816.266 47.2459 809.884 44.4364C800.497 40.3078 790.757 37.2935 780.952 34.4222C774.488 32.5306 767.897 31.1441 761.337 29.6341C752.593 27.6245 743.752 26.1173 734.955 24.3996C726.07 22.6623 717.082 21.4611 708.206 19.6816C699.508 17.9387 690.802 16.2435 682.129 14.3574C670.234 11.7696 658.416 8.90965 646.804 5.30027C628.693 -0.329899 610.964 -6.92557 594.252 -16.0136C587.909 -19.4629 581.708 -23.1228 575.653 -27.0381C574.924 -27.5097 573.868 -27.8268 573.829 -28.9972H541.635L541.643 -29ZM1119.94 243.261C1127.93 243.008 1135.69 244.232 1143.49 243.814C1143.58 243.808 1143.68 243.805 1143.77 243.816C1144.3 243.878 1145.04 243.693 1145.1 244.468C1145.14 245.136 1144.53 245.385 1143.95 245.436C1143.2 245.5 1142.45 245.481 1141.69 245.492C1140.38 245.514 1139.02 245.326 1137.75 245.59C1133.41 246.494 1128.98 246.053 1124.6 246.494C1121.37 246.82 1118.09 247.173 1114.82 247.328C1112.8 247.423 1110.72 247.586 1108.68 247.838C1104.51 248.355 1100.37 249.087 1096.19 249.357C1092.44 249.598 1088.79 250.376 1085.06 250.701C1080.23 251.122 1075.46 252.043 1070.67 252.801C1066.43 253.471 1062.21 254.224 1057.97 254.917C1054.28 255.52 1050.64 256.286 1046.84 256.222C1042.52 256.146 1038.21 256.079 1033.93 255.551C1030.97 255.186 1028.06 254.465 1025.13 253.909C1024.65 253.819 1024.17 253.704 1024.14 253.123C1024.1 252.54 1024.52 252.343 1025.02 252.262C1030.92 251.321 1036.79 250.157 1042.72 249.494C1049.5 248.739 1056.25 247.802 1063.02 247.024C1069.7 246.258 1076.4 245.725 1083.09 245.029C1088.38 244.479 1093.73 243.971 1099.03 243.923C1106.08 243.861 1113.08 242.927 1119.94 243.255L1119.94 243.261Z" fill="#B3303A"/>
<path d="M1412 185.991C1410.86 186.65 1410.54 185.505 1410.05 185.008C1404.36 179.28 1398.47 173.748 1391.88 169.058C1384.54 163.829 1377.63 158.087 1370.57 152.51C1353.11 138.726 1333.37 129.358 1312.03 123.192C1310.86 122.855 1309.69 122.487 1308.58 121.996C1291.47 114.44 1273.56 109.672 1255.11 106.747C1237.43 103.946 1219.62 102.947 1201.74 102.784C1195.82 102.731 1189.91 102.259 1184 102.04C1172.25 101.605 1160.5 101.692 1148.75 102.167C1139.73 102.532 1130.73 103.127 1121.73 103.724C1119.35 103.882 1117.47 102.394 1115.88 100.786C1111.93 96.7948 1108.01 92.7672 1105.39 87.718C1104.52 87.7826 1104.09 87.2437 1103.6 86.6178C1096.24 77.3727 1090.21 67.2883 1084.74 56.8728C1080.18 48.1889 1076.35 39.1739 1072.83 30.0186C1068.74 19.3925 1065.21 8.59811 1062.36 -2.41525C1060.22 -10.7005 1058.56 -19.1149 1055.25 -27.069C1055.02 -27.6444 1055.11 -28.3545 1055.05 -29H969.197C969.411 -27.577 970.273 -26.4291 970.871 -25.1745C973.484 -19.7071 975.991 -14.1836 977.838 -8.42152C980.304 -0.722832 982.464 7.07409 984.771 14.8233C984.983 15.539 985.158 16.2014 984.59 16.816C983.633 16.4399 983.503 15.6428 983.173 15.0142C982.004 12.7857 981.094 10.4168 979.925 8.20517C977.045 2.75463 974.873 -2.9822 972.507 -8.64605C970.744 -12.8645 969.375 -17.2176 967.714 -21.4669C966.774 -23.8722 965.819 -26.3337 965.808 -29H950.558C951.643 -25.8257 953.077 -22.7945 954.326 -19.6875C957.664 -11.3826 959.75 -2.67066 962.45 5.84196C964.421 12.0559 966.46 18.2587 968.7 24.38C971.419 31.8177 974.582 39.0729 977.895 46.2804C981.213 53.5048 984.98 60.4625 989.007 67.2967C993.175 74.3667 997.75 81.1645 1002.96 87.5272C1003.49 88.1755 1003.97 88.8604 1004.47 89.5396C1004.65 89.7922 1004.64 90.1121 1004.4 90.2777C1004.19 90.4153 1003.84 90.5163 1003.64 90.4293C1003.22 90.2497 1002.85 89.9493 1002.48 89.6715C999.495 87.4402 996.412 85.3212 993.557 82.9327C990.552 80.4179 987.406 78.0294 984.952 74.9224C981.066 71.4646 977.415 67.7851 974.28 63.6228C972.007 61.2849 969.971 58.728 968.268 55.9803C966.011 52.3372 963.845 48.6099 962.027 44.7367C957.553 35.2137 952.95 25.7356 949.488 15.7748C947.534 10.153 945.534 4.54528 943.702 -1.11577C942.072 -6.15654 940.717 -11.2843 939.107 -16.3307C937.752 -20.5828 936.207 -24.7788 934.744 -28.9972H925.707C925.879 -28.4723 926.023 -27.9363 926.227 -27.4255C928.61 -21.4894 930.7 -15.455 932.409 -9.29159C934.925 -1.02315 937.653 7.17513 940.46 15.3481C941.507 16.6673 942.225 18.1015 942.078 19.8444C942.117 20.0072 942.149 20.1728 942.171 20.3384C942.849 20.5573 943.532 20.7762 942.547 21.5172L942.739 23.1451C943.967 23.0384 944.202 23.9394 944.608 24.815C948.037 32.1713 951.019 39.7353 955.043 46.8221C958.039 52.0986 960.982 57.406 964.308 62.4861C969.682 70.6872 975.506 78.529 982.083 85.8544C987.225 91.5828 992.653 96.9885 998.524 101.928C1003.95 106.495 1009.75 110.62 1015.88 114.252C1021.94 117.845 1028.24 120.98 1034.77 123.615C1041.46 126.315 1048.4 128.26 1055.43 129.911C1057.81 130.469 1060.15 131.527 1062.56 130.91C1065.88 130.059 1069.28 130.379 1072.62 130.02C1078.56 129.383 1084.57 129.257 1090.54 128.788C1094.74 128.46 1098.99 128.359 1103.17 128.325C1115.1 128.227 1127.03 127.665 1138.96 128.656C1143.79 129.057 1148.7 129.004 1153.53 128.648C1156.44 128.432 1159.24 128.429 1162.15 128.648C1167.37 129.046 1172.63 128.774 1177.88 129.226C1181.04 129.498 1184.24 129.728 1187.39 130.015C1192.96 130.52 1198.53 131.134 1204.05 132.091C1209.85 133.096 1215.65 134.031 1221.39 135.316C1230.35 137.326 1239.16 139.869 1247.82 142.908C1253.05 144.741 1258.18 146.807 1263.18 149.142C1272.11 153.31 1280.67 158.109 1288.83 163.678C1299.29 170.818 1308.95 178.82 1317.7 187.953C1321.65 192.073 1325.63 196.137 1329.27 200.543C1333.67 205.867 1337.97 211.265 1341.94 216.903C1349.91 228.217 1357.14 239.999 1363.64 252.203C1369.31 262.854 1374.48 273.761 1379.41 284.766C1380.74 287.721 1382.32 290.606 1383.08 293.803C1383.12 294.35 1383.16 294.898 1383.2 295.445C1383.93 295.49 1384.32 295.838 1384.22 296.61C1384.45 297.533 1384.67 298.454 1384.89 299.377C1385.62 299.425 1386.01 299.77 1385.91 300.542C1385.95 301.086 1385.99 301.634 1386.02 302.178C1387.5 302.394 1387.05 303.539 1387.13 304.432C1387.15 304.612 1387.16 304.794 1387.16 304.974C1387.93 305.058 1388.31 305.426 1388.11 306.228C1388.15 306.941 1388.2 307.654 1388.25 308.367C1389.01 308.409 1389.41 308.732 1389.22 309.543C1390.19 311.901 1391.41 314.18 1391.65 316.781C1392.14 317.012 1392.24 317.43 1392.19 317.915C1392.54 318.471 1393.35 318.746 1393.21 319.591C1394.15 320.335 1394.31 321.387 1394.37 322.479C1394.42 323.001 1394.47 323.523 1394.53 324.045C1395.28 324.135 1395.64 324.517 1395.48 325.297C1395.73 326.375 1395.98 327.452 1396.23 328.533C1396.97 328.634 1397.34 329.013 1397.17 329.79L1397.92 333.026C1398.67 333.13 1399.04 333.506 1398.86 334.287C1399.11 335.364 1399.36 336.442 1399.61 337.52C1400.36 337.618 1400.73 337.997 1400.55 338.777C1400.61 339.299 1400.66 339.821 1400.72 340.343C1402.32 340.77 1402.25 342.361 1402.71 343.447C1404.94 348.668 1407.17 353.888 1409.76 358.946C1410.25 359.903 1410.51 361.152 1411.99 361.129V348.78C1410.66 348.654 1410.46 347.478 1410.1 346.588C1407.75 340.705 1405.26 334.865 1403.23 328.87C1401.5 323.75 1399.65 318.676 1397.65 313.672C1392.17 300.012 1386.7 286.351 1380.24 273.093C1377.09 266.623 1373.78 260.235 1370.72 253.727C1370.21 252.646 1369.11 251.852 1369.14 250.516L1369.04 249.458C1368.33 249.388 1367.94 249.026 1367.99 248.282C1367.36 245.223 1365.08 243.112 1363.5 240.606C1360.06 235.158 1356.61 229.713 1353.1 224.313C1350 219.55 1346.79 214.852 1343.64 210.125C1341.02 206.827 1338.76 203.288 1336.35 199.847C1333.89 196.333 1331.24 192.954 1328.73 189.477C1326.33 186.151 1323.22 183.344 1321.12 179.867C1321.66 179.381 1321.95 179.417 1322.16 179.606C1325.34 182.35 1328.67 184.949 1331.65 187.891C1336.12 192.289 1340.68 196.591 1344.81 201.335C1348.18 205.205 1351.54 209.095 1354.67 213.137C1359.58 219.471 1364.17 226.047 1368.52 232.792C1374.66 242.301 1380.05 252.217 1385.34 262.189C1387.97 267.137 1390.3 272.245 1392.7 277.314C1394.78 281.701 1396.91 286.074 1398.75 290.559C1402.7 300.2 1406.93 309.737 1410.37 319.58C1410.65 320.363 1410.91 321.224 1411.99 321.278V185.996L1412 185.991Z" fill="#B3303A"/>
<path d="M1412 464.412V453.185C1410.83 453.342 1410.08 452.691 1409.32 451.936C1406.98 449.632 1405.09 446.954 1402.92 444.516C1397.09 437.934 1391.91 430.853 1386.99 423.606C1380.17 413.55 1374.13 403.036 1368.98 391.994C1365.94 385.472 1363.37 378.764 1360.35 372.235C1356.9 364.787 1354.15 357.037 1350.88 349.504C1346.71 339.911 1342.29 330.444 1337.58 321.112C1334.48 314.943 1331.16 308.872 1327.67 302.897C1323.43 295.642 1319.22 288.367 1314.56 281.37C1309.81 274.229 1304.85 267.235 1299.41 260.564C1294.74 254.838 1289.86 249.326 1284.77 243.982C1281.55 240.594 1278.14 237.389 1274.6 234.307C1270.64 230.875 1266.7 227.423 1262.5 224.316C1256.87 220.145 1251.09 216.176 1244.99 212.651C1234.33 206.482 1223.29 201.163 1211.61 197.175C1205.4 195.053 1199.18 192.957 1192.82 191.321C1187.21 189.875 1181.54 188.688 1175.84 187.604C1171.34 186.748 1166.79 186.271 1162.3 185.452C1160 185.034 1157.7 184.425 1155.39 184.377C1149.38 184.253 1143.43 183.714 1137.45 183.251C1132.41 182.861 1127.32 182.794 1122.28 182.771C1106.96 182.704 1091.63 181.977 1076.32 183.153C1072.96 183.411 1069.57 183.004 1066.23 183.672C1063.97 183.7 1061.69 183.532 1059.46 183.796C1055 184.326 1050.53 184.728 1046.03 184.876C1044.72 185.968 1043.13 185.196 1041.69 185.494C1035.92 186.69 1030 186.69 1024.19 187.635C1019.78 188.354 1015.32 188.761 1010.87 189.272C1010.13 189.356 1009.36 189.333 1008.63 189.23C1006.5 188.932 1004.39 188.592 1002.27 188.23C995.813 187.122 989.405 185.699 983.215 183.591C974.862 180.748 966.895 177.012 959.33 172.426C950.496 167.068 942.437 160.719 934.857 153.765C932.109 151.241 929.624 148.426 927.077 145.687C922.869 141.16 919.096 136.293 915.343 131.437C908.131 122.103 902.324 111.839 897.038 101.333C894.318 95.9247 891.675 90.4461 889.484 84.7795C887.467 79.5647 885.135 74.4453 883.488 69.1154C880.986 61.0294 878.097 53.095 874.943 45.2504C872.017 37.9699 868.696 30.8915 864.892 24.0039C859.984 15.118 853.941 7.11618 847.002 -0.251314C844.763 -2.62856 842.34 -4.82618 839.835 -6.95925C836.345 -9.93151 832.75 -12.7438 829.013 -15.3877C822.804 -19.7801 816.139 -23.4007 809.33 -26.7771C808.356 -27.2599 807.116 -27.5405 807.102 -29H786.204C786.673 -27.3553 788.173 -27.4198 789.365 -27.3721C791.096 -27.302 792.669 -26.8613 794.196 -26.1512C799.014 -23.9087 803.654 -21.3266 808.164 -18.5396C809.785 -17.5376 811.714 -16.805 812.739 -14.9975C813.01 -14.9218 813.332 -14.9161 813.544 -14.7618C818.169 -11.4106 822.612 -7.83773 826.831 -3.98979C829.465 -1.58729 831.835 1.07063 834.125 3.79029C837.553 7.85995 841.052 11.8819 843.707 16.5269C845.876 19.909 848.005 23.305 849.897 26.8583C855.048 36.5385 858.965 46.6986 862.272 57.1226C865.291 66.64 868.948 75.9216 872.887 85.1022C878.275 97.6621 884.731 109.638 892.158 121.115C896.682 128.106 901.915 134.561 907.072 141.078C908.887 142.044 909.675 143.966 911.065 145.339C916.312 150.523 921.553 155.693 927.286 160.374C934.117 165.954 941.499 170.661 949.197 174.927C957.746 179.662 967.051 182.564 976.141 185.991C979.103 187.108 982.151 188.003 985.02 189.359C987.558 189.67 989.874 190.717 992.252 191.556C997.637 193.454 1002.94 195.632 1008.43 197.17C1014.73 198.932 1021.3 199.437 1027.8 199.934C1035.75 200.54 1043.74 200.052 1051.62 198.755C1056.78 197.905 1061.98 197.428 1067.15 196.754C1068.99 196.516 1070.82 196.002 1072.71 196.081C1075.44 196.193 1078.15 195.719 1080.81 195.371C1086 194.689 1091.24 194.102 1096.41 193.998C1104.76 193.832 1113.1 193.288 1121.45 193.285C1125.69 193.285 1129.92 193.19 1134.15 193.308C1141.09 193.501 1148.02 193.033 1154.98 193.723C1159.98 194.22 1165.03 194.5 1170.07 194.882C1174.08 195.185 1178.07 195.688 1182.03 196.238C1188.13 197.085 1194.16 198.357 1200.21 199.482C1204.43 200.268 1208.69 201.065 1212.66 202.651C1217.1 204.422 1221.41 206.541 1225.62 208.8C1227.55 209.839 1229.78 210.546 1231.26 212.34C1231.53 212.415 1231.83 212.435 1232.06 212.573C1244.6 219.982 1256.15 228.686 1266.63 238.79C1272.76 244.709 1278.7 250.813 1284.13 257.373C1288.96 263.182 1293.64 269.104 1297.94 275.307C1300.32 278.745 1302.9 282.068 1304.74 285.857C1305.01 286.121 1305.33 286.349 1305.52 286.657C1312.29 297.424 1318.69 308.401 1324.47 319.723C1328.25 327.129 1331.93 334.59 1335.42 342.131C1338.51 348.805 1341.57 355.499 1344.35 362.319C1347.61 370.338 1350.8 378.396 1354.42 386.252C1361.09 400.681 1368.78 414.557 1378.15 427.468C1387.23 439.983 1397.31 451.636 1408.52 462.315C1409.49 463.247 1410.43 464.389 1412 464.406L1412 464.412Z" fill="#2C2F4C"/>
<path d="M866.968 -29H849.459C849.389 -28.259 849.905 -27.8184 850.301 -27.2992C859.603 -15.1716 866.434 -1.75008 871.455 12.6172C873.977 19.8332 876.03 27.1951 878.665 34.3801C882.113 43.7712 885.875 53.022 890.201 62.0398C893.884 69.7133 897.995 77.1565 902.483 84.4062C910.444 97.2663 919.689 109.11 930.514 119.706C936.41 125.476 942.891 130.579 949.505 135.504C953.032 138.131 956.39 140.983 960.106 143.355C960.956 143.327 961.832 143.265 961.801 144.511L961.806 144.503C962.806 144.314 963.645 144.761 964.478 145.196C966.387 146.195 968.265 147.29 970.197 148.207C977.991 151.909 986.073 154.912 994.404 157.183C998.363 158.261 1002.43 158.943 1006.47 159.701C1010.34 160.425 1014.26 160.554 1018.13 161.197C1020.78 161.64 1023.55 161.539 1026.23 161.604C1029.26 161.676 1032.37 161.107 1035.39 160.616C1037.35 160.298 1039.3 160.307 1041.24 160.001C1043.73 159.608 1046.23 159.184 1048.74 159.097C1051.64 158.996 1054.52 158.564 1057.4 158.367C1061.87 158.059 1066.32 157.36 1070.82 157.365C1071.28 157.365 1071.77 157.41 1072.22 157.309C1076.83 156.288 1081.56 156.557 1086.2 156.38C1097.29 155.959 1108.4 156.383 1119.5 156.192C1125.9 156.083 1132.25 156.689 1138.62 156.905C1141.31 156.998 1144.04 157.163 1146.73 157.452C1152.2 158.039 1157.63 158.929 1163.1 159.586C1169.13 160.31 1175.11 161.404 1181.01 162.757C1190.96 165.036 1200.84 167.585 1210.37 171.329C1215.95 173.523 1221.64 175.491 1226.95 178.272C1233.91 181.913 1241.04 185.227 1247.41 189.959C1251.15 192.732 1255.23 195.104 1258.99 197.868C1260.77 199.176 1262.66 200.453 1264.05 202.244C1264.87 202.368 1265.47 202.758 1265.7 203.591C1267.98 205.073 1269.95 206.912 1271.92 208.772C1280.52 216.889 1288.53 225.542 1295.78 234.869C1302.77 243.875 1309.27 253.224 1315.29 262.916C1322.04 273.789 1328.16 285.007 1333.9 296.416C1337.33 303.239 1340.57 310.172 1343.68 317.16C1348.12 327.132 1352.33 337.197 1356.36 347.329C1360.76 358.359 1365.4 369.252 1371.03 379.729C1377.02 390.872 1383.86 401.458 1391.4 411.616C1396.3 418.231 1401.66 424.479 1407.21 430.561C1408.61 432.093 1409.72 434.1 1412 434.661V420.067C1410.31 419.834 1409.54 418.481 1408.64 417.308C1405.3 412.935 1402.19 408.405 1399.2 403.782C1395.19 397.582 1391.41 391.256 1388.02 384.705C1382.86 374.747 1378.41 364.489 1374.41 354.006C1370.56 343.908 1366.44 333.902 1362.06 324.003C1358.39 315.72 1354.5 307.547 1350.67 299.344C1348.89 295.535 1346.85 291.855 1344.83 288.162C1339.91 279.158 1335.03 270.16 1329.05 261.759C1322.83 253.025 1316.88 244.12 1310.1 235.775C1305.55 230.19 1300.69 224.913 1295.81 219.648C1292.27 215.82 1288.15 212.533 1284.21 209.092C1278.85 204.422 1273.23 200.091 1267.37 196.095C1262.72 192.934 1257.71 190.361 1252.92 187.436C1249.49 185.34 1245.81 183.712 1242.34 181.668C1239.49 179.99 1236.06 179.277 1232.9 178.121C1230.31 177.175 1227.75 176.153 1225.36 174.946C1225.41 174.371 1225.69 174.267 1225.96 174.256C1226.43 174.236 1226.92 174.203 1227.36 174.306C1235.75 176.305 1243.98 178.884 1251.99 182.033C1259.58 185.014 1267.02 188.337 1274.14 192.356C1279.61 195.443 1285 198.688 1290.13 202.252C1299.13 208.5 1307.51 215.528 1315.06 223.496C1317.12 225.674 1319.3 227.748 1321.44 229.848C1322.09 230.479 1322.71 231.36 1323.8 230.49C1323.54 229.508 1323.09 228.649 1322.21 228.065C1321.06 228.043 1321.04 227.235 1321.05 226.409C1320.87 226.213 1320.69 226.019 1320.51 225.823C1318.13 225.365 1317.71 222.924 1316.22 221.551C1315.87 221.223 1316.51 220.827 1316.96 220.698C1316.78 219.746 1315.92 219.3 1315.39 218.613C1314.75 218.624 1314.26 218.242 1313.73 217.973C1312.2 217.894 1311.43 216.687 1310.71 215.674C1309.83 214.436 1308.75 213.415 1307.74 212.317C1305.9 210.316 1303.67 208.725 1301.73 206.844C1298.63 203.849 1295.37 201.071 1292.04 198.34C1283.34 191.197 1274.01 184.969 1264.12 179.645C1253.21 173.779 1241.79 169.047 1229.92 165.362C1215.77 160.969 1201.26 158.356 1186.63 156.305C1180.72 155.474 1174.74 154.772 1168.79 154.663C1162.41 154.545 1156.05 153.529 1149.67 154.04C1146.87 154.264 1144.14 154.329 1141.33 154.048C1137.89 153.703 1134.41 153.708 1130.96 153.565C1125.71 153.346 1120.47 152.897 1115.22 152.872C1107.22 152.835 1099.23 152.866 1091.23 152.872C1090.48 152.872 1089.7 152.785 1088.97 152.914C1083.13 153.961 1077.19 153.228 1071.3 153.871C1067.79 154.253 1064.22 154.505 1060.66 154.705C1058.45 154.828 1056.14 154.772 1053.96 155.241C1051.01 155.878 1048 155.822 1045.04 156.105C1041.98 156.397 1038.86 156.608 1035.82 156.953C1033 157.273 1030.62 156.942 1027.98 156.038C1018.81 152.9 1009.97 149.091 1001.57 144.264C992.599 139.111 984.381 132.976 976.858 125.917C974.26 123.478 971.798 120.898 969.259 118.395C968.604 117.749 968.05 116.919 966.969 116.916C967.432 118.866 968.849 120.357 970.01 121.771C973.326 125.804 976.604 129.897 980.453 133.481C983.466 136.287 986.324 139.243 989.47 141.923C994.105 145.869 998.948 149.504 1004.06 152.805C1005.97 154.042 1008.04 155.092 1009.84 156.933C1008.63 157.573 1007.55 157.478 1006.61 157.309C1001.09 156.33 995.533 155.499 990.185 153.742C987.745 152.939 985.873 151.174 983.681 149.947C974.246 144.671 965.664 138.193 957.703 130.952C953.699 127.309 949.923 123.396 946.322 119.301C940.333 112.487 934.829 105.35 929.805 97.808C926.122 92.2789 922.765 86.5617 919.678 80.7042C916.628 74.9168 913.683 69.0705 910.991 63.0923C907.309 54.9137 904.05 46.5751 901.105 38.1214C899.611 33.8356 898.08 29.5555 897.151 25.0536C896.273 20.7959 894.211 16.8778 892.356 12.9035C889.193 6.13104 886.332 -0.778971 882.452 -7.19501C878.781 -13.2658 874.971 -19.23 870.17 -24.5318C868.967 -25.8622 867.42 -27.0887 866.974 -29.0112L866.968 -29Z" fill="white"/>
<path d="M855 77.12C858.451 85.0937 861.136 93.3481 863.966 101.544C868.151 113.666 873.288 125.367 879.173 136.753C883.556 145.235 888.473 153.397 893.997 161.196C894.643 162.111 895.211 163.08 895.818 164.026C897.919 165.903 899.342 168.337 901.105 170.489C907.018 177.714 913.276 184.587 920.424 190.636C922.053 192.014 923.598 193.496 925.179 194.927C926.026 195.337 926.778 195.878 927.534 196.443C930.24 198.455 932.934 200.487 935.758 202.325C946.585 209.379 958.178 214.79 970.677 218.242C972.899 218.857 975.223 219.294 976.906 221.181C977.502 221.849 978.437 222.25 979.27 222.671C987.386 226.769 995.471 230.934 1004.36 233.246C1008.24 234.257 1012.1 235.304 1016.07 236.039C1019.75 236.721 1023.47 237.159 1027.17 237.459C1031.34 237.799 1035.57 237.903 1039.8 237.223C1042.65 236.766 1045.51 236.297 1048.38 235.918C1052.82 235.335 1057.25 234.636 1061.68 234.021C1065.38 233.507 1069.08 233.019 1072.78 232.57C1076.49 232.121 1080.21 231.809 1083.91 231.282C1084.92 231.139 1085.92 230.869 1086.96 230.875C1089.77 230.892 1092.56 230.426 1095.34 230.179C1099.91 229.772 1104.44 229.073 1109.04 229.185C1109.6 229.199 1110.18 229.21 1110.73 229.118C1115.33 228.349 1120 228.425 1124.64 228.088C1128 227.844 1131.39 228.441 1134.74 227.571C1135.51 227.369 1136.45 227.496 1137.24 227.731C1138.26 228.04 1139.27 228.105 1140.3 228.054C1143.66 227.894 1147.07 228.512 1150.39 227.557C1150.73 227.459 1151.18 227.476 1151.51 227.605C1153.33 228.304 1155.23 228.15 1157.09 228.037C1161.98 227.743 1166.81 228.646 1171.69 228.742C1173.8 228.781 1175.99 228.972 1178.1 229.323C1181.78 229.937 1185.5 230.24 1189.19 230.805C1194.55 231.624 1199.87 232.55 1205.19 233.569C1210.06 234.504 1214.9 235.621 1219.62 237.12C1222.89 238.158 1226.5 238.026 1229.48 240.112C1231 241.181 1232.76 241.927 1234.37 242.887C1247.47 250.69 1259.21 260.238 1270.35 270.553C1273.87 273.806 1276.73 277.651 1280.17 280.971C1280.76 281.541 1281.13 282.343 1281.6 283.04C1282.27 283.682 1283.03 284.263 1283.61 284.979C1286.91 289.035 1290.22 293.079 1293.41 297.213C1298.94 304.387 1304.04 311.872 1308.79 319.579C1310.93 323.063 1313.35 326.402 1314.93 330.211C1316.56 332.162 1317.62 334.463 1318.82 336.652C1329.18 355.522 1338.46 374.907 1346.58 394.835C1353.23 411.136 1360.78 426.985 1370.56 441.7C1371.08 442.478 1371.48 443.328 1371.93 444.148C1372.55 444.465 1372.83 445.066 1373.2 445.61C1379.52 454.996 1386.59 463.814 1394.21 472.161C1398.95 477.337 1404.12 482.119 1409.11 487.059C1409.9 487.842 1410.74 488.628 1412 488.549V482.936C1410.8 482.936 1410.24 481.968 1409.5 481.283C1405.65 477.71 1402.29 473.663 1398.59 469.955C1395.4 466.77 1392.61 463.258 1389.76 459.817C1384.57 453.573 1379.86 446.952 1375.52 440.089C1371.67 434.01 1368.06 427.791 1364.67 421.447C1358.85 410.549 1354.25 399.104 1349.5 387.728C1346.34 380.142 1342.94 372.668 1339.48 365.221C1336.29 358.365 1332.92 351.587 1329.51 344.837C1327.74 341.34 1325.64 338.005 1323.82 334.536C1320.33 327.924 1316.4 321.564 1312.45 315.229C1308.84 309.456 1304.85 303.93 1300.86 298.406C1294.17 289.161 1286.95 280.387 1278.88 272.293C1272.93 266.32 1266.93 260.395 1260.36 255.102C1254.03 249.999 1247.38 245.321 1240.33 241.22C1229.76 235.079 1218.83 229.747 1207.28 225.677C1197.2 222.124 1186.9 219.376 1176.41 217.265C1171.37 216.252 1166.29 215.545 1161.23 214.669C1158.02 214.113 1154.76 213.74 1151.5 213.53C1148.33 213.325 1145.14 213.083 1141.99 212.8C1136.23 212.281 1130.47 211.891 1124.71 211.86C1113.63 211.803 1102.55 211.632 1091.46 212.275C1086.23 212.578 1080.99 213.305 1075.72 212.946C1075.44 212.926 1075.14 212.946 1074.88 213.024C1071.79 213.948 1068.56 213.628 1065.41 213.931C1060.76 214.377 1056.11 214.944 1051.46 215.329C1049.62 215.48 1047.73 215.584 1045.88 215.856C1042.1 216.409 1038.3 216.906 1034.51 217.417C1030.72 217.928 1026.94 218.52 1023.14 218.902C1018.86 219.328 1014.66 220.339 1010.31 220.268C1005.43 220.19 1000.61 219.735 995.771 219.163C988.962 218.36 982.3 216.962 975.805 214.809C967.87 212.18 960.185 209.002 952.883 204.868C942.479 198.977 932.973 191.941 924.292 183.759C922.036 181.632 920.206 179.128 918.012 176.964C914.809 173.804 911.901 170.377 909.142 166.86C900.175 155.432 892.627 143.091 886.084 130.152C884.104 126.237 882.398 122.187 880.585 118.19C877.538 111.471 874.887 104.594 872.492 97.6255C868.341 85.5428 864.398 73.4096 858.36 62.0342C853.599 53.0669 847.892 44.804 841.188 37.2429C835.593 30.9335 829.095 25.5587 822.092 20.7986C813.775 15.1432 804.99 10.4224 795.702 6.49585C785.911 2.35602 775.86 -0.939009 765.62 -3.64744C753.782 -6.77687 741.808 -9.36182 729.787 -11.7475C717.234 -14.2398 704.678 -16.7181 692.151 -19.3451C680.612 -21.7673 669.184 -24.6132 657.727 -27.3525C656.809 -27.5715 655.854 -27.8044 655.739 -29.0029H632.017C633.079 -27.9588 634.556 -27.869 635.86 -27.4367C638.523 -26.5555 641.251 -25.8566 643.96 -25.1212C644.592 -24.95 645.23 -24.922 645.665 -24.2989C646.405 -23.2408 647.631 -22.8619 648.749 -22.4212C652.497 -20.9449 656.281 -19.564 660.045 -18.1298C670.302 -14.2174 680.799 -11.0514 691.403 -8.23915C703.967 -4.90764 716.644 -2.01958 729.388 0.545715C739.188 2.516 748.979 4.5396 758.82 6.27693C767.843 7.86831 776.792 9.77965 785.739 11.7275C788.02 12.2243 790.299 12.8024 792.612 13.0438C794.049 13.1926 795.343 13.4732 796.636 14.1075C804.495 17.9527 811.753 22.7015 818.672 28.037C825.622 33.3977 831.558 39.7408 837.276 46.3028C838.078 47.2234 839.25 48.0991 839.369 49.5361C841.575 51.3829 842.631 54.0408 844.19 56.3394C848.606 62.8425 852.117 69.8255 855.003 77.12H855ZM1022.92 223.544C1023.89 222.907 1024.57 223.011 1025.21 223.05C1030.77 223.378 1036.2 222.359 1041.65 221.45C1045.97 220.729 1050.33 220.221 1054.68 219.679C1058.39 219.219 1062.13 219.011 1065.81 218.399C1070.24 217.664 1074.72 217.335 1079.17 216.954C1082.23 216.69 1085.34 216.468 1088.39 216.162C1093.77 215.623 1099.19 215.376 1104.57 214.756C1110.13 214.116 1115.81 214.776 1121.42 214.074C1125.28 213.594 1129.07 214.894 1132.92 214.599C1137.07 214.282 1141.18 214.933 1145.26 215.289C1149.62 215.671 1153.97 216.353 1158.3 217.027C1159.48 217.212 1161.02 216.954 1162.09 217.978C1161.69 218.514 1161.32 218.545 1160.95 218.534C1154 218.337 1147.07 219.042 1140.13 219.025C1133.93 219.011 1127.77 219.682 1121.58 219.805C1118.91 219.859 1116.11 219.822 1113.48 220.361C1110.52 220.967 1107.52 220.95 1104.56 221.24C1100.2 221.666 1095.81 222.112 1091.47 222.634C1086.2 223.269 1080.89 223.74 1075.65 224.666C1071.06 225.478 1066.39 225.837 1061.77 226.524C1055.68 227.431 1049.68 228.402 1043.41 227.678C1038.68 227.131 1033.94 226.668 1029.26 225.806C1027.14 225.416 1024.86 225.261 1022.91 223.544H1022.92Z" fill="white"/>
<path d="M655.733 -28.9999C655.849 -27.8015 656.803 -27.5685 657.721 -27.3496C669.181 -24.6103 680.607 -21.7644 692.146 -19.3422C704.673 -16.7124 717.228 -14.2341 729.781 -11.7446C741.803 -9.35889 753.777 -6.77395 765.615 -3.64451C775.855 -0.938885 785.908 2.35614 795.696 6.49878C804.987 10.4281 813.77 15.1489 822.086 20.8016C829.09 25.5645 835.588 30.9364 841.182 37.2458C847.884 44.807 853.594 53.067 858.355 62.0371C864.393 73.4125 868.335 85.5458 872.486 97.6284C874.881 104.597 877.533 111.477 880.58 118.193C882.393 122.19 884.099 126.242 886.078 130.155C892.621 143.094 900.17 155.435 909.136 166.863C911.895 170.38 914.801 173.807 918.006 176.967C920.201 179.131 922.031 181.635 924.287 183.762C932.965 191.944 942.471 198.98 952.877 204.871C960.177 209.005 967.861 212.183 975.799 214.812C982.295 216.965 988.957 218.36 995.765 219.166C1000.6 219.735 1005.43 220.193 1010.31 220.271C1014.65 220.342 1018.85 219.331 1023.13 218.905C1026.93 218.523 1030.72 217.931 1034.51 217.42C1038.3 216.909 1042.09 216.412 1045.87 215.859C1047.72 215.59 1049.61 215.486 1051.45 215.332C1056.11 214.944 1060.76 214.38 1065.4 213.934C1068.55 213.631 1071.78 213.951 1074.88 213.027C1075.14 212.949 1075.44 212.929 1075.72 212.949C1080.99 213.308 1086.22 212.581 1091.45 212.278C1102.54 211.635 1113.62 211.806 1124.71 211.863C1130.47 211.891 1136.23 212.284 1141.98 212.803C1145.14 213.086 1148.32 213.328 1151.5 213.533C1154.75 213.743 1158.02 214.116 1161.23 214.672C1166.28 215.548 1171.37 216.255 1176.41 217.268C1186.89 219.379 1197.19 222.127 1207.27 225.68C1218.82 229.747 1229.76 235.082 1240.32 241.223C1247.38 245.324 1254.02 250.002 1260.36 255.105C1266.93 260.398 1272.92 266.323 1278.87 272.296C1286.94 280.39 1294.16 289.161 1300.85 298.409C1304.84 303.932 1308.83 309.456 1312.44 315.232C1316.4 321.567 1320.32 327.924 1323.81 334.539C1325.64 338.008 1327.73 341.343 1329.5 344.84C1332.91 351.592 1336.28 358.368 1339.47 365.224C1342.94 372.671 1346.34 380.145 1349.5 387.731C1354.24 399.107 1358.84 410.552 1364.67 421.45C1368.06 427.796 1371.67 434.013 1375.51 440.092C1379.85 446.952 1384.56 453.576 1389.75 459.82C1392.61 463.261 1395.4 466.77 1398.58 469.958C1402.29 473.663 1405.64 477.713 1409.49 481.286C1410.23 481.971 1410.79 482.939 1411.99 482.939V464.415C1410.42 464.398 1409.49 463.256 1408.51 462.324C1397.31 451.642 1387.22 439.991 1378.14 427.476C1368.78 414.566 1361.09 400.692 1354.42 386.26C1350.79 378.405 1347.6 370.347 1344.34 362.328C1341.57 355.508 1338.51 348.814 1335.42 342.14C1331.92 334.598 1328.24 327.135 1324.46 319.731C1318.69 308.409 1312.28 297.432 1305.52 286.666C1305.33 286.357 1305 286.13 1304.74 285.866C1303.76 285.939 1303.19 285.324 1302.67 284.631C1299.15 279.921 1295.18 275.568 1291.23 271.232C1284.99 264.381 1278.17 258.069 1270.97 252.22C1265.03 247.392 1258.77 242.974 1252.22 238.939C1243.82 233.76 1235.05 229.306 1225.96 225.554C1215.57 221.265 1204.83 217.973 1193.82 215.548C1182.21 212.994 1170.55 211.054 1158.71 210.027C1156.28 209.817 1153.82 209.89 1151.44 209.469C1146.62 208.61 1141.72 208.716 1136.89 208.57C1124.69 208.203 1112.47 208.365 1100.26 208.924C1096.15 209.112 1092.06 209.923 1087.92 209.581C1087.73 209.567 1087.53 209.586 1087.36 209.643C1084.27 210.608 1081.03 210.263 1077.88 210.543C1073.05 210.973 1068.21 211.554 1063.37 211.944C1061.44 212.098 1059.46 212.25 1057.52 212.545C1053.74 213.117 1049.94 213.558 1046.15 214.049C1042.54 214.515 1038.92 214.902 1035.32 215.461C1031.81 216.008 1028.31 216.69 1024.77 216.816C1018.4 217.044 1012.05 216.732 1005.72 215.795C999.024 214.804 992.472 213.243 986.11 211.091C978.742 208.596 971.631 205.455 964.84 201.573C956.763 196.956 949.011 191.879 942.16 185.648C935.238 179.353 928.661 172.665 922.79 165.351C918.286 159.743 914.149 153.863 910.305 147.798C908.989 145.721 907.125 143.795 907.075 141.076C901.918 134.559 896.685 128.103 892.161 121.112C884.734 109.633 878.278 97.6593 872.89 85.0995C868.951 75.9161 865.294 66.6372 862.275 57.1198C858.968 46.6959 855.051 36.5357 849.9 26.8555C848.011 23.3023 845.879 19.9062 843.713 16.5242C842.631 16.5214 841.699 16.0976 840.863 15.4633C835.557 11.4301 829.686 8.3147 823.84 5.17123C820.29 3.2627 816.5 1.86497 812.826 0.217461C805.634 -3.0102 798.116 -5.33413 790.579 -7.55981C781.172 -10.3384 771.613 -12.5332 762.037 -14.6916C752.839 -16.7657 743.588 -18.5591 734.359 -20.4761C723.306 -22.7719 712.236 -24.9836 701.199 -27.3552C700.279 -27.5517 699.327 -27.7959 699.225 -29.0027H655.736L655.733 -28.9999Z" fill="white"/>
<path d="M1315.39 218.621C1315.92 219.309 1316.78 219.755 1316.97 220.706C1318.18 222.399 1319.88 223.749 1320.52 225.831C1320.69 226.028 1320.87 226.221 1321.05 226.418C1321.83 226.699 1322.19 227.268 1322.22 228.074C1323.09 228.658 1323.54 229.516 1323.8 230.499C1324.53 230.768 1324.67 231.459 1324.95 232.054C1326.24 232.814 1326.9 234.004 1327.27 235.394C1332.53 243.025 1336.95 251.147 1341.27 259.315C1346.42 269.062 1351.27 278.959 1355.77 289.026C1360.65 299.947 1365.37 310.935 1369.59 322.117C1376.03 339.19 1383.13 355.943 1392.47 371.685C1397.97 380.945 1404.13 389.766 1410.34 398.548C1410.75 399.132 1411.05 399.929 1412 399.856V393.681C1410.67 393.617 1410.15 392.603 1409.53 391.646C1405.23 384.983 1401.09 378.236 1397.27 371.27C1392.19 362 1387.58 352.527 1383.73 342.698C1378.64 329.681 1373.77 316.585 1368.23 303.742C1363.93 293.803 1359.32 284.013 1354.71 274.227C1352.16 268.824 1349.15 263.648 1346.24 258.428C1342.96 252.568 1339.64 246.752 1335.9 241.156C1332.38 235.885 1329.07 230.462 1325.29 225.368C1318.68 216.46 1312.08 207.543 1304.15 199.701C1302.58 198.158 1300.97 196.561 1300.16 194.416L1299.6 193.855C1298.02 193.889 1297.02 193.221 1296.78 191.598C1296.56 191.301 1296.4 190.93 1296.12 190.714C1291.92 187.512 1288.1 183.858 1283.75 180.807C1278.66 177.24 1273.92 173.178 1269.04 169.319C1268.45 168.853 1267.96 168.278 1267.92 167.461C1266.59 167.556 1265.63 166.816 1264.6 166.136C1258.11 161.859 1251.64 157.554 1244.63 154.138C1243.68 153.675 1242.68 153.203 1242.25 152.106C1243.03 151.601 1243.64 151.82 1244.28 152.022C1252.86 154.747 1261.28 157.91 1269.42 161.744C1279.45 166.465 1288.91 172.148 1297.87 178.654C1304.76 183.656 1311.28 189.095 1317.4 194.994C1323.13 200.51 1328.43 206.404 1333.51 212.525C1339.01 219.137 1344.11 226.011 1349.01 233.047C1355.3 242.085 1360.71 251.655 1366.01 261.285C1367.63 264.221 1369.18 267.193 1370.74 270.16C1371.02 270.693 1371.59 271.282 1370.77 271.861C1370.79 272.321 1370.89 272.739 1371.34 272.983C1372.7 273.157 1372.84 274.213 1372.99 275.257C1373.01 275.622 1373.02 275.986 1373.03 276.351C1373.78 276.377 1374.16 276.75 1374.12 277.502C1374.14 277.867 1374.15 278.232 1374.16 278.594C1374.91 278.622 1375.29 278.995 1375.25 279.747C1375.2 280.721 1375.53 281.608 1376.1 282.352C1378.45 285.439 1378.89 289.408 1380.93 292.633C1381.91 292.537 1382.16 293.775 1383.08 293.789C1382.33 290.592 1380.74 287.707 1379.42 284.752C1374.48 273.747 1369.32 262.84 1363.64 252.189C1357.14 239.985 1349.92 228.203 1341.95 216.889C1337.97 211.251 1333.68 205.853 1329.28 200.529C1325.63 196.123 1321.65 192.056 1317.71 187.939C1308.96 178.806 1299.29 170.804 1288.83 163.664C1280.68 158.095 1272.12 153.296 1263.19 149.128C1258.19 146.793 1253.05 144.724 1247.83 142.894C1239.17 139.855 1230.36 137.312 1221.4 135.302C1215.66 134.017 1209.85 133.082 1204.06 132.077C1198.53 131.12 1192.96 130.506 1187.4 130C1184.24 129.714 1181.05 129.484 1177.89 129.212C1172.64 128.76 1167.38 129.032 1162.15 128.634C1159.24 128.412 1156.44 128.415 1153.53 128.634C1148.7 128.993 1143.79 129.043 1138.97 128.642C1127.04 127.648 1115.1 128.213 1103.18 128.311C1098.99 128.345 1094.74 128.446 1090.54 128.774C1084.57 129.243 1078.56 129.369 1072.62 130.006C1069.28 130.363 1065.89 130.045 1062.57 130.896C1060.16 131.51 1057.81 130.452 1055.44 129.897C1048.4 128.246 1041.46 126.301 1034.77 123.601C1028.24 120.969 1021.95 117.831 1015.88 114.238C1009.75 110.606 1003.96 106.481 998.53 101.914C992.659 96.9744 987.234 91.5688 982.088 85.8404C975.511 78.515 969.685 70.676 964.314 62.4721C960.987 57.392 958.045 52.0846 955.049 46.8081C951.024 39.7212 948.042 32.1601 944.614 24.801C944.204 23.9253 943.973 23.0244 942.742 23.131C943.123 25.062 944.148 26.8106 944.374 28.7865C945.862 29.2159 945.715 30.549 945.981 31.6549C945.981 32.4014 946.311 33.0694 946.481 33.7739C947.144 36.5441 948.895 38.9073 949.434 41.714C950.183 41.7448 950.558 42.1153 950.513 42.8731C950.4 43.8667 951.061 44.6918 951.123 45.6461C951.872 45.6714 952.253 46.039 952.213 46.7996C952.225 47.1645 952.236 47.5322 952.247 47.897C952.507 47.9728 952.942 47.9841 953.001 48.1384C953.789 50.1592 955.207 51.9078 955.605 54.0942C955.616 54.4618 955.625 54.8267 955.636 55.1944C956.864 55.2421 957.006 56.317 957.435 57.1001C959.005 59.9657 960.445 62.9071 962.125 65.7082C966.918 73.7015 971.885 81.5799 977.666 88.9333C980.431 92.4501 983.125 96.0538 986.24 99.2366C990.944 104.047 995.516 109.004 1000.76 113.284C1004.6 116.413 1008.41 119.548 1012.58 122.243C1015.72 124.275 1018.86 126.296 1022 128.328C1022.41 128.589 1022.79 128.942 1022.51 129.462C1022.32 129.812 1021.87 129.883 1021.51 129.773C1018.04 128.704 1014.31 128.563 1010.97 126.989C997.728 123.323 985.613 117.314 974.311 109.607C971.577 107.946 969.188 105.841 966.895 103.654C961.205 98.2262 955.964 92.3911 951.016 86.2754C944.058 77.6758 938.147 68.3857 932.685 58.8206C929.26 52.8199 926.148 46.6425 923.259 40.3415C919.091 31.2479 915.493 21.9466 912.112 12.5527C909.523 5.3564 907.704 -2.09249 905.225 -9.31685C903.352 -14.773 900.797 -19.999 898.484 -25.3008C897.956 -26.5105 897.298 -27.6416 897.476 -29.0225H889.568C889.467 -28.3432 889.729 -27.751 889.967 -27.1336C891.04 -24.3409 892.167 -21.568 893.107 -18.7304C897.877 -4.3687 902.158 10.1614 908.215 24.0797C912.739 34.47 917.735 44.6132 923.49 54.3889C928.771 63.3562 934.896 71.7649 940.804 80.314C942.815 83.2246 944.543 86.3708 947.082 88.9109C948.895 89.4301 949.259 89.9634 948.943 91.6446C948.994 92.4192 949.375 92.9665 950.084 93.2893C951.278 92.4781 951.976 93.3145 952.693 94.0695C955.387 96.9043 957.969 99.8148 960.937 102.428C964.797 105.827 968.643 109.214 972.752 112.31C982.23 119.447 992.506 125.238 1003.5 129.669C1010.62 132.535 1017.94 134.918 1025.54 136.234C1033.97 137.694 1042.35 139.596 1051.01 138.822C1053.34 138.614 1055.66 138.39 1057.98 138.14C1060.95 137.823 1063.91 137.343 1066.88 137.177C1069.96 137.003 1073.04 136.68 1076.11 136.447C1080.86 136.091 1085.59 135.431 1090.37 135.454C1090.84 135.454 1091.32 135.507 1091.78 135.423C1097.33 134.376 1103.01 135.266 1108.57 134.34C1110.47 134.022 1112.24 135.044 1114.14 134.904C1117.69 134.646 1121.28 135.389 1124.8 134.401C1125.14 134.309 1125.58 134.368 1125.91 134.511C1127.17 135.067 1128.5 134.839 1129.81 134.893C1136.08 135.154 1142.35 134.811 1148.66 135.311C1155.55 135.855 1162.43 136.383 1169.32 137.082C1175.18 137.677 1181 138.513 1186.77 139.574C1194.58 141.008 1202.33 142.74 1209.99 144.879C1220.86 147.913 1231.37 151.817 1241.57 156.577C1252.14 161.505 1262.07 167.5 1271.53 174.276C1276.84 178.084 1282 182.126 1286.81 186.532C1291.86 191.152 1296.58 196.126 1301.41 200.978C1302.39 201.966 1303.27 203.069 1303.57 204.495C1304.09 205.519 1305.03 206.182 1305.8 206.982C1307.8 209.056 1310.04 210.922 1311.48 213.479C1312.39 213.965 1313.11 214.588 1313.18 215.713C1313.61 215.957 1313.74 216.364 1313.78 216.819C1314.85 216.94 1315.43 217.501 1315.4 218.604L1315.39 218.621Z" fill="#B3303A"/>
<path d="M960.109 143.357C956.39 140.986 953.032 138.134 949.508 135.507C942.894 130.581 936.413 125.479 930.517 119.708C919.692 109.11 910.446 97.2691 902.485 84.409C897.998 77.1594 893.886 69.7161 890.204 62.0426C885.875 53.0248 882.113 43.7741 878.668 34.383C876.03 27.2007 873.977 19.836 871.458 12.6201C866.437 -1.74727 859.609 -15.1716 850.304 -27.2964C849.905 -27.8156 849.389 -28.2562 849.462 -28.9972H807.102C807.116 -27.5377 808.353 -27.2599 809.33 -26.7743C816.139 -23.3979 822.804 -19.7773 829.014 -15.3849C832.75 -12.741 836.345 -9.9287 839.835 -6.95644C842.34 -4.82337 844.763 -2.62575 847.002 -0.248507C853.941 7.11618 859.984 15.118 864.892 24.0067C868.696 30.8943 872.017 37.9755 874.943 45.2532C878.097 53.1006 880.986 61.0322 883.488 69.1182C885.138 74.4453 887.467 79.5647 889.484 84.7823C891.675 90.4461 894.318 95.9275 897.038 101.336C902.325 111.841 908.131 122.105 915.343 131.44C919.093 136.296 922.869 141.163 927.077 145.69C929.624 148.429 932.106 151.247 934.857 153.767C942.437 160.722 950.494 167.071 959.33 172.429C966.892 177.015 974.862 180.751 983.215 183.594C989.405 185.702 995.813 187.125 1002.27 188.233C1004.39 188.595 1006.5 188.938 1008.63 189.232C1009.36 189.336 1010.13 189.359 1010.87 189.274C1015.32 188.764 1019.78 188.357 1024.19 187.638C1030 186.692 1035.92 186.692 1041.69 185.497C1043.13 185.199 1044.71 185.971 1046.03 184.879C1044.97 184.012 1043.71 183.827 1042.38 183.726C1040.34 183.568 1038.27 183.456 1036.28 183.018C1031.01 181.859 1025.7 180.854 1020.48 179.387C1011.23 176.785 1002.52 173.038 994.203 168.32C993.229 167.767 992.306 167.18 991.227 166.799C989.445 166.17 988.061 164.924 986.793 163.557L986.708 163.456C985.895 163.535 985.356 163.201 985.119 162.412C980.722 159.549 976.689 156.203 972.492 153.074C968.83 150.343 965.139 147.652 961.812 144.508L961.806 144.517C961.01 144.466 960.471 144.045 960.112 143.36L960.109 143.357Z" fill="#2C2F4C"/>
<path d="M1412 434.661C1409.72 434.097 1408.61 432.093 1407.21 430.561C1401.66 424.479 1396.3 418.231 1391.4 411.616C1383.86 401.458 1377.02 390.872 1371.03 379.729C1365.4 369.252 1360.76 358.359 1356.36 347.329C1352.33 337.2 1348.12 327.132 1343.68 317.16C1340.57 310.172 1337.33 303.236 1333.9 296.416C1328.16 285.007 1322.04 273.789 1315.29 262.916C1309.27 253.222 1302.77 243.873 1295.78 234.869C1288.53 225.542 1280.52 216.889 1271.92 208.772C1269.95 206.912 1267.98 205.073 1265.7 203.588C1265.62 204.094 1265.37 204.501 1264.8 204.408C1263.89 204.259 1264.06 203.507 1264.05 202.878C1263.46 202.839 1262.88 202.803 1262.3 202.763C1260.6 202.213 1258.7 202 1257.86 200.066C1257.41 199.028 1256.49 198.876 1255.51 198.851C1251.19 197.551 1247.18 195.477 1243.03 193.776C1230.85 188.792 1218.26 185.23 1205.37 182.665C1200.06 181.607 1194.72 180.723 1189.37 179.923C1185.68 179.37 1181.95 178.966 1178.23 178.73C1175.15 178.536 1172.02 178.368 1169 177.975C1163.58 177.273 1158.15 177.464 1152.74 177.133C1141.4 176.437 1130.02 177.385 1118.65 177.548C1114.43 177.607 1110.26 178.48 1106.02 178.152C1105.84 178.138 1105.64 178.157 1105.46 178.211C1102.18 179.199 1098.76 178.674 1095.42 179.117C1092.58 179.493 1089.65 179.723 1086.77 179.968C1084.64 180.147 1082.48 180.245 1080.34 180.492C1076.73 180.913 1073.19 181.856 1069.54 182.098C1068.29 182.179 1066.87 182.199 1066.22 183.678C1069.56 183.013 1072.96 183.417 1076.31 183.162C1091.62 181.986 1106.96 182.712 1122.27 182.78C1127.31 182.802 1132.41 182.867 1137.45 183.26C1143.42 183.723 1149.38 184.262 1155.38 184.385C1157.69 184.433 1159.99 185.042 1162.29 185.46C1166.79 186.28 1171.34 186.757 1175.83 187.613C1181.53 188.696 1187.2 189.886 1192.81 191.329C1199.17 192.965 1205.39 195.062 1211.6 197.184C1223.28 201.175 1234.32 206.491 1244.98 212.66C1251.08 216.185 1256.86 220.153 1262.49 224.324C1266.69 227.431 1270.64 230.883 1274.59 234.316C1278.13 237.395 1281.54 240.6 1284.76 243.99C1289.85 249.334 1294.73 254.849 1299.4 260.572C1304.84 267.244 1309.8 274.235 1314.56 281.378C1319.21 288.375 1323.43 295.647 1327.66 302.905C1331.15 308.881 1334.47 314.954 1337.58 321.12C1342.28 330.453 1346.71 339.922 1350.87 349.513C1354.14 357.046 1356.9 364.798 1360.34 372.244C1363.36 378.772 1365.93 385.48 1368.98 392.003C1374.12 403.044 1380.16 413.561 1386.99 423.614C1391.9 430.858 1397.08 437.942 1402.92 444.524C1405.08 446.963 1406.97 449.64 1409.31 451.945C1410.07 452.697 1410.83 453.348 1411.99 453.194V434.67L1412 434.661Z" fill="#2C2F4C"/>
<path d="M839.366 49.539C839.248 48.1019 838.076 47.2263 837.274 46.3057C831.555 39.7437 825.622 33.3978 818.669 28.0399C811.747 22.7044 804.493 17.9555 796.633 14.1104C795.34 13.4789 794.047 13.1982 792.609 13.0467C790.296 12.8053 788.015 12.2271 785.736 11.7303C776.789 9.77971 767.84 7.87118 758.817 6.2798C748.976 4.54247 739.185 2.51887 729.386 0.548588C716.638 -2.0139 703.964 -4.90476 691.4 -8.23628C680.796 -11.0486 670.299 -14.2145 660.042 -18.127C656.278 -19.5612 652.494 -20.9421 648.746 -22.4184C647.628 -22.859 646.402 -23.2379 645.662 -24.296C645.225 -24.9191 644.586 -24.9472 643.957 -25.1184C641.246 -25.8565 638.521 -26.5526 635.857 -27.4339C634.556 -27.8661 633.076 -27.9559 632.014 -29H594.737C594.768 -27.9279 595.463 -27.3048 596.302 -26.8333C599.484 -25.0454 602.636 -23.1986 605.881 -21.5258C614.884 -16.8892 624.045 -12.6006 633.474 -8.87339C645.42 -4.15258 657.63 -0.256926 670.048 2.99881C683.512 6.52679 697.045 9.76849 710.77 12.1626C716.282 13.1225 721.758 14.2985 727.259 15.3453C735.048 16.8273 742.836 18.3008 750.633 19.7378C757.888 21.0737 765.095 22.6258 772.296 24.234C784.55 26.9706 796.704 30.0326 808.409 34.5935C818.195 38.4049 827.771 42.6991 836.472 48.6773C837.333 49.2695 838.259 49.7214 839.366 49.539Z" fill="white"/>
<path d="M947.074 88.9333C944.535 86.3933 942.809 83.2498 940.796 80.3365C934.888 71.7874 928.763 63.3786 923.482 54.4113C917.727 44.6357 912.728 34.4952 908.207 24.1021C902.149 10.1839 897.868 -4.34624 893.098 -18.708C892.155 -21.5427 891.028 -24.3185 889.958 -27.1111C889.721 -27.7286 889.458 -28.3208 889.56 -29H866.968C867.414 -27.0774 868.962 -25.8509 870.165 -24.5206C874.966 -19.2188 878.775 -13.2546 882.446 -7.18378C886.326 -0.76774 889.187 6.14227 892.35 12.9148C894.205 16.889 896.267 20.8043 897.145 25.0648C898.074 29.5639 899.605 33.8441 901.099 38.1327C904.044 46.5863 907.303 54.9249 910.986 63.1036C913.677 69.0818 916.622 74.9281 919.672 80.7154C922.759 86.5729 926.117 92.2901 929.799 97.8192C934.823 105.361 940.324 112.498 946.317 119.313C949.914 123.408 953.69 127.317 957.697 130.963C965.658 138.204 974.24 144.682 983.675 149.959C985.87 151.185 987.739 152.951 990.179 153.753C995.528 155.51 1001.09 156.341 1006.6 157.321C1007.54 157.486 1008.62 157.584 1009.83 156.944C1008.04 155.103 1005.97 154.054 1004.05 152.816C998.942 149.512 994.099 145.881 989.465 141.934C986.316 139.254 983.461 136.299 980.448 133.492C976.598 129.908 973.32 125.816 970.004 121.783C968.844 120.368 967.423 118.878 966.963 116.927V116.938C965.856 116.279 964.825 115.557 964.687 114.123C963.216 113.287 962.552 111.788 961.784 110.432C960.905 108.88 959.861 107.502 958.739 106.119C956.943 103.898 955.009 101.72 953.978 98.9784C953.272 98.6388 952.905 98.0718 952.815 97.3084C951.925 96.7976 951.222 96.1549 951.151 95.0462C950.561 94.6112 950.239 94.0106 950.078 93.3145C949.369 92.9918 948.985 92.4445 948.935 91.6726C948.076 90.9232 947.364 90.0728 947.074 88.9389V88.9333Z" fill="white"/>
<path d="M1412 399.859C1411.04 399.932 1410.75 399.135 1410.34 398.551C1404.12 389.769 1397.97 380.945 1392.47 371.688C1383.12 355.946 1376.03 339.195 1369.59 322.12C1365.37 310.935 1360.65 299.95 1355.77 289.029C1351.26 278.959 1346.42 269.062 1341.26 259.318C1336.95 251.147 1332.52 243.028 1327.27 235.396C1325.08 234.439 1324.79 234.03 1324.94 232.056C1324.67 231.461 1324.53 230.771 1323.8 230.502C1322.72 231.374 1322.09 230.49 1321.45 229.859C1319.3 227.757 1317.13 225.685 1315.07 223.507C1307.52 215.536 1299.13 208.511 1290.14 202.264C1285 198.699 1279.62 195.455 1274.15 192.367C1267.02 188.348 1259.58 185.025 1252 182.044C1243.98 178.895 1235.76 176.319 1227.37 174.318C1226.92 174.211 1226.43 174.248 1225.97 174.267C1225.69 174.278 1225.42 174.382 1225.37 174.958C1227.76 176.165 1230.32 177.186 1232.9 178.132C1236.07 179.288 1239.49 180.001 1242.34 181.68C1245.81 183.723 1249.49 185.348 1252.93 187.447C1257.72 190.369 1262.73 192.946 1267.37 196.106C1273.24 200.103 1278.86 204.433 1284.21 209.104C1288.16 212.545 1292.27 215.831 1295.82 219.659C1300.69 224.925 1305.56 230.201 1310.1 235.787C1316.89 244.131 1322.83 253.036 1329.06 261.771C1335.04 270.171 1339.92 279.169 1344.84 288.173C1346.86 291.867 1348.9 295.549 1350.68 299.355C1354.51 307.559 1358.4 315.732 1362.06 324.014C1366.44 333.913 1370.56 343.919 1374.42 354.017C1378.42 364.503 1382.87 374.759 1388.02 384.717C1391.41 391.265 1395.19 397.594 1399.2 403.794C1402.19 408.416 1405.3 412.946 1408.65 417.319C1409.54 418.489 1410.32 419.845 1412.01 420.078V399.87L1412 399.859Z" fill="white"/>
<path d="M944.368 28.8005C944.142 26.8246 943.12 25.076 942.736 23.1451C942.674 22.6034 942.609 22.0589 942.544 21.5172C942.117 21.2197 942.095 20.7931 942.168 20.3384C942.146 20.1728 942.115 20.0072 942.075 19.8444C940.609 18.66 940.101 17.2426 940.457 15.3481C937.65 7.17513 934.919 -1.02315 932.406 -9.29159C931.796 -9.41227 931.533 -9.80801 931.296 -10.3778C929.223 -15.3175 926.854 -20.1113 924.216 -24.7816C923.471 -26.1035 922.183 -27.2599 922.316 -28.9972H904.242C904.236 -28.3096 904.561 -27.7258 904.894 -27.1672C910.616 -17.5713 914.758 -7.25395 918.418 3.22334C921.149 11.0427 923.214 19.0866 926.066 26.8892C929.432 36.0978 933.12 45.1634 937.286 54.0296C940.544 60.9649 944.283 67.656 948.246 74.2236C955.348 86.0032 963.182 97.227 973.004 106.969C973.763 107.721 974.421 108.473 974.3 109.627C985.601 117.334 997.716 123.343 1010.96 127.009C1010.9 125.709 1009.9 125.083 1009.01 124.421C1003.84 120.564 999.041 116.276 994.339 111.886C990.651 108.442 987.471 104.519 984.153 100.727C980.524 96.5787 977.206 92.2003 974.04 87.7152C968.657 80.0951 963.885 72.0905 959.474 63.881C957.977 61.0968 956.283 58.3715 955.627 55.2084C955.616 54.8408 955.608 54.4759 955.596 54.1082C954.842 54.0689 954.518 53.5357 954.213 52.9547C953.371 51.3436 952.577 49.7158 952.239 47.9111C952.227 47.5462 952.216 47.1785 952.205 46.8109C951.49 46.7547 951.12 46.3758 951.115 45.6573C951.053 44.7031 950.389 43.8779 950.505 42.8843C949.79 42.8254 949.426 42.4409 949.423 41.7252C948.884 38.9157 947.133 36.5525 946.469 33.7851C946.3 33.0807 945.972 32.4127 945.969 31.6661C944.526 31.2142 944.684 29.8726 944.363 28.7977L944.368 28.8005Z" fill="white"/>
<path d="M839.366 49.539C838.259 49.7186 837.333 49.2667 836.472 48.6773C827.768 42.6991 818.195 38.4049 808.409 34.5935C796.707 30.0354 784.55 26.9734 772.296 24.234C765.095 22.6258 757.888 21.0737 750.633 19.7378C742.836 18.3008 735.048 16.8273 727.259 15.3453C721.761 14.2985 716.285 13.1253 710.77 12.1626C697.042 9.76849 683.51 6.52679 670.048 2.99881C657.63 -0.254118 645.419 -4.14977 633.474 -8.87339C624.042 -12.6006 614.884 -16.8892 605.881 -21.5258C602.636 -23.1958 599.484 -25.0454 596.302 -26.8333C595.46 -27.3048 594.768 -27.9279 594.737 -29H573.84C573.876 -27.8296 574.935 -27.5125 575.664 -27.0409C581.719 -23.1256 587.92 -19.4629 594.263 -16.0164C610.975 -6.92837 628.704 -0.332706 646.815 5.29747C658.424 8.90684 670.245 11.7668 682.14 14.3546C690.812 16.2407 699.519 17.9359 708.217 19.6788C717.09 21.4583 726.081 22.6595 734.966 24.3968C743.763 26.1173 752.604 27.6217 761.348 29.6313C767.908 31.1413 774.499 32.5249 780.963 34.4194C790.768 37.2907 800.508 40.305 809.895 44.4336C816.28 47.2403 822.335 50.5971 828.194 54.271C833.091 57.3387 837.655 60.92 842.007 64.7848C846.082 68.4026 849.66 72.4217 853.198 76.5082C853.684 77.0667 854.342 77.0948 855.003 77.1229C852.114 69.8283 848.603 62.8454 844.187 56.3423C842.628 54.0465 841.569 51.3857 839.366 49.539Z" fill="white"/>
<path d="M1374.16 278.611C1374.15 278.246 1374.13 277.881 1374.12 277.519C1373.4 277.468 1373.03 277.089 1373.03 276.368C1373.01 276.003 1373 275.638 1372.99 275.274C1371.68 275.063 1371.52 274.019 1371.33 273C1370.88 272.756 1370.78 272.338 1370.77 271.877C1369.67 270.592 1368.85 269.133 1368.08 267.653C1364.63 261.027 1361.01 254.515 1356.71 248.38C1353.94 244.409 1351.53 240.179 1348.69 236.258C1344.31 230.227 1339.85 224.26 1335.06 218.528C1331.22 213.939 1327.2 209.516 1323.04 205.253C1319.42 201.526 1315.46 198.062 1311.5 194.638C1306.47 190.293 1301.19 186.305 1295.76 182.502C1290.77 179.01 1285.53 175.901 1280.16 173.046C1276.21 170.944 1272.36 168.536 1267.91 167.475C1267.95 168.292 1268.43 168.864 1269.03 169.333C1273.91 173.192 1278.65 177.254 1283.74 180.821C1288.09 183.872 1291.9 187.526 1296.11 190.728C1296.39 190.944 1296.55 191.315 1296.77 191.612C1298.18 191.781 1298.91 192.791 1299.59 193.869C1299.77 194.057 1299.96 194.242 1300.15 194.43C1301.12 194.397 1301.67 195.081 1302.26 195.676C1306 199.457 1309.85 203.12 1313.37 207.128C1316.39 210.557 1319.55 213.855 1322.49 217.372C1327.16 222.96 1331.57 228.736 1335.65 234.737C1341.9 243.915 1348.02 253.171 1353.34 262.938C1357.81 271.142 1362.2 279.366 1366.15 287.833C1370.06 296.203 1373.83 304.623 1377.45 313.121C1381.5 322.644 1385.34 332.249 1388.85 341.971C1391.93 350.489 1395.62 358.738 1399.43 366.939C1402.58 373.715 1406.26 380.218 1410.12 386.62C1410.58 387.38 1410.99 388.065 1411.99 388.073V365.62C1410.76 365.595 1410.64 364.512 1410.2 363.745C1408.37 360.605 1407.19 357.166 1405.82 353.832C1403.99 349.389 1401.86 345.044 1400.72 340.343C1400.66 339.821 1400.61 339.299 1400.55 338.777C1399.88 338.626 1399.54 338.221 1399.61 337.52C1399.36 336.442 1399.11 335.364 1398.85 334.287C1398.19 334.129 1397.85 333.731 1397.92 333.026C1397.67 331.949 1397.42 330.871 1397.17 329.79C1396.49 329.639 1396.15 329.243 1396.23 328.533C1395.97 327.455 1395.73 326.377 1395.48 325.297C1394.8 325.151 1394.45 324.755 1394.53 324.048C1394.47 323.526 1394.42 323.004 1394.37 322.482C1393.12 321.861 1392.75 320.893 1393.21 319.596C1393.34 318.752 1392.53 318.477 1392.19 317.921C1391.48 317.792 1390.81 317.646 1391.64 316.787C1391.4 314.185 1390.18 311.906 1389.21 309.549C1387.74 309.355 1387.73 309.332 1388.25 308.373C1388.2 307.66 1388.15 306.947 1388.1 306.234C1387.69 306.15 1387.31 305.984 1387.08 305.6C1385.66 305.347 1386.09 304.213 1385.99 303.335C1385.98 303.155 1385.97 302.975 1385.94 302.799C1385.46 302.712 1385.01 302.535 1384.85 302.052C1383.81 298.807 1381.57 296.057 1380.92 292.652C1378.88 289.428 1378.45 285.459 1376.09 282.372C1375.52 281.628 1375.19 280.741 1375.25 279.767C1374.53 279.714 1374.16 279.335 1374.16 278.613L1374.16 278.611Z" fill="#B3303A"/>
<path d="M699.222 -29C699.324 -27.7931 700.276 -27.549 701.196 -27.3525C712.233 -24.9809 723.306 -22.7692 734.356 -20.4733C743.582 -18.5564 752.836 -16.7629 762.034 -14.6888C771.607 -12.5305 781.169 -10.3329 790.576 -7.55707C798.11 -5.33138 805.628 -3.00746 812.824 0.220207C816.498 1.86772 820.287 3.26544 823.837 5.17398C829.686 8.31744 835.554 11.4328 840.86 15.466C841.696 16.1031 842.628 16.5241 843.71 16.5269C841.055 11.8819 837.556 7.85715 834.128 3.79029C831.837 1.07063 829.468 -1.58729 826.833 -3.98979C822.614 -7.83773 818.172 -11.4106 813.546 -14.7618C813.335 -14.9161 813.013 -14.9218 812.742 -14.9975C811.714 -14.9695 810.722 -15.0256 809.697 -15.3091C802.067 -17.4169 794.422 -19.4686 786.682 -21.161C776.868 -23.3081 767.058 -25.4776 757.194 -27.389C756.222 -27.577 754.81 -27.4563 754.576 -29H699.225H699.222Z" fill="white"/>
<path d="M1055.05 -29C1055.11 -28.3545 1055.02 -27.6444 1055.25 -27.069C1058.56 -19.1149 1060.22 -10.7005 1062.36 -2.41525C1065.21 8.59811 1068.74 19.3925 1072.83 30.0186C1076.35 39.1739 1080.18 48.1889 1084.74 56.8728C1090.21 67.2883 1096.24 77.3727 1103.6 86.6178C1104.09 87.2437 1104.52 87.7826 1105.39 87.718C1104.56 85.0321 1103.04 82.6576 1101.83 80.1429C1095.92 67.8216 1091.4 54.9979 1087.25 42.0002C1084.4 33.0975 1082.29 24.0235 1079.83 15.031C1075.59 -0.484266 1069.25 -15.0537 1059.49 -28.0149C1059.27 -28.3039 1059.16 -28.6716 1059 -29.0028C1057.68 -29.0028 1056.37 -29.0028 1055.05 -29.0028L1055.05 -29Z" fill="#B3303A"/>
<path d="M974.305 109.627C974.427 108.473 973.769 107.724 973.009 106.969C963.187 97.227 955.353 86.0004 948.251 74.2236C944.289 67.6532 940.55 60.9649 937.291 54.0296C933.123 45.1606 929.435 36.095 926.071 26.8892C923.219 19.0866 921.155 11.0455 918.424 3.22334C914.764 -7.25675 910.621 -17.5713 904.9 -27.1672C904.567 -27.7258 904.242 -28.3096 904.248 -28.9972H897.47C897.295 -27.6191 897.95 -26.4852 898.478 -25.2756C900.794 -19.9738 903.347 -14.7477 905.219 -9.29159C907.698 -2.06722 909.517 5.37886 912.107 12.578C915.487 21.9719 919.085 31.2704 923.253 40.3668C926.139 46.6677 929.254 52.8452 932.68 58.8459C938.141 68.411 944.049 77.6982 951.01 86.3007C955.958 92.4164 961.199 98.2515 966.89 103.68C969.183 105.866 971.572 107.974 974.305 109.632V109.627Z" fill="white"/>
<path d="M1412 388.071C1411 388.062 1410.59 387.377 1410.13 386.617C1406.27 380.215 1402.58 373.712 1399.44 366.936C1395.63 358.735 1391.94 350.487 1388.86 341.968C1385.34 332.246 1381.5 322.642 1377.45 313.119C1373.84 304.62 1370.07 296.197 1366.16 287.831C1362.2 279.363 1357.82 271.137 1353.35 262.935C1348.02 253.168 1341.9 243.912 1335.66 234.734C1331.58 228.731 1327.16 222.954 1322.49 217.369C1319.56 213.852 1316.39 210.557 1313.38 207.125C1309.85 203.117 1306 199.454 1302.27 195.674C1301.68 195.079 1301.13 194.394 1300.16 194.427C1300.97 196.572 1302.58 198.166 1304.14 199.712C1312.08 207.554 1318.68 216.471 1325.29 225.379C1329.07 230.474 1332.37 235.896 1335.9 241.167C1339.64 246.763 1342.96 252.576 1346.23 258.439C1349.15 263.66 1352.15 268.835 1354.7 274.238C1359.32 284.025 1363.93 293.814 1368.22 303.753C1373.77 316.593 1378.64 329.692 1383.73 342.709C1387.57 352.538 1392.18 362.011 1397.26 371.281C1401.08 378.245 1405.22 384.995 1409.53 391.658C1410.15 392.612 1410.66 393.628 1412 393.692V388.079L1412 388.071Z" fill="white"/>
<path d="M1412 321.272C1410.92 321.219 1410.66 320.357 1410.38 319.574C1406.93 309.731 1402.71 300.194 1398.76 290.553C1396.91 286.068 1394.78 281.695 1392.71 277.308C1390.31 272.24 1387.98 267.134 1385.35 262.183C1380.06 252.211 1374.67 242.298 1368.53 232.786C1364.18 226.039 1359.59 219.466 1354.68 213.131C1351.54 209.087 1348.19 205.2 1344.82 201.329C1340.68 196.586 1336.13 192.28 1331.66 187.885C1328.68 184.944 1325.35 182.345 1322.17 179.6C1321.95 179.412 1321.67 179.375 1321.13 179.861C1323.22 183.338 1326.33 186.145 1328.74 189.471C1331.25 192.948 1333.9 196.328 1336.36 199.842C1338.77 203.283 1341.03 206.819 1343.65 210.12C1345.08 209.934 1345.92 210.83 1346.69 211.801C1350.66 216.858 1354.88 221.714 1358.65 226.937C1362.81 232.696 1366.72 238.61 1370.6 244.549C1373.52 249.003 1375.91 253.749 1378.61 258.321C1380.61 261.698 1382.74 265.038 1384.31 268.616C1387.37 275.641 1391.21 282.273 1394.35 289.265C1397.48 296.234 1400.53 303.234 1403.48 310.273C1405.93 316.116 1408.08 322.089 1410.38 328C1410.68 328.777 1410.92 329.641 1412 329.698V321.278L1412 321.272Z" fill="white"/>
<path d="M984.952 74.9196C987.406 78.0266 990.555 80.4179 993.557 82.9299C996.412 85.3183 999.493 87.4374 1002.48 89.6687C1002.85 89.9437 1003.22 90.2469 1003.64 90.4265C1003.84 90.5135 1004.19 90.4124 1004.4 90.2749C1004.64 90.1093 1004.65 89.7922 1004.47 89.5368C1003.97 88.8604 1003.49 88.1727 1002.96 87.5244C997.75 81.1617 993.173 74.3639 989.007 67.2939C984.98 60.4597 981.213 53.502 977.895 46.2776C974.585 39.0701 971.419 31.812 968.7 24.3772C966.46 18.253 964.421 12.0531 962.45 5.83915C959.75 -2.67347 957.664 -11.3854 954.326 -19.6903C953.077 -22.7973 951.643 -25.8285 950.558 -29.0028H943.781C943.815 -28.1243 944.269 -27.3946 944.69 -26.6789C947.59 -21.77 950.013 -16.6338 952.366 -11.4499C954.871 -5.92639 956.658 -0.164305 958.401 5.6062C960.092 11.2083 961.609 16.8665 963.43 22.4322C967.022 33.4062 971.165 44.1754 975.791 54.7594C977.022 57.5744 978.372 60.3418 979.756 63.0867C981.512 66.5726 983.353 70.0164 985.175 73.4714C985.471 74.0355 985.553 74.5155 984.952 74.9168V74.9196Z" fill="white"/>
<path d="M984.952 74.9196C985.553 74.5183 985.472 74.0383 985.175 73.4742C983.356 70.0192 981.515 66.5754 979.756 63.0895C978.372 60.3446 977.022 57.5772 975.791 54.7622C971.165 44.1782 967.022 33.409 963.43 22.435C961.609 16.8694 960.092 11.2111 958.401 5.609C956.658 -0.158695 954.874 -5.92359 952.366 -11.4471C950.013 -16.631 947.59 -21.77 944.69 -26.6761C944.267 -27.3918 943.815 -28.1215 943.781 -29H938.133C938.153 -28.0149 938.675 -27.2037 939.166 -26.4291C941.428 -22.8674 943.16 -19.0307 945.001 -15.2586C947.41 -10.3216 949.288 -5.14614 951.044 0.0405788C953.25 6.54643 954.91 13.2319 957.048 19.763C961.626 33.7571 966.539 47.6276 973.537 60.6674C974 61.5318 974.393 62.5478 974.28 63.62C977.415 67.7823 981.063 71.4618 984.952 74.9196Z" fill="#B3303A"/>
<path d="M1412 329.692C1410.92 329.639 1410.68 328.771 1410.38 327.994C1408.08 322.083 1405.93 316.111 1403.48 310.267C1400.52 303.228 1397.47 296.228 1394.35 289.259C1391.21 282.271 1387.36 275.636 1384.3 268.611C1382.74 265.032 1380.61 261.692 1378.61 258.316C1375.91 253.744 1373.51 248.998 1370.6 244.543C1366.71 238.607 1362.81 232.691 1358.65 226.932C1354.88 221.708 1350.66 216.85 1346.69 211.795C1345.92 210.824 1345.07 209.929 1343.64 210.114C1346.8 214.84 1350 219.539 1353.1 224.302C1356.62 229.702 1360.06 235.147 1363.5 240.594C1365.09 243.101 1367.37 245.211 1368 248.271C1368.72 248.33 1369.07 248.722 1369.05 249.447C1369.09 249.8 1369.12 250.154 1369.15 250.505C1370 250.572 1370.45 251.091 1370.84 251.796C1374.06 257.681 1377.43 263.494 1380.52 269.444C1385.55 279.099 1390.08 288.998 1394.4 298.979C1398.43 308.277 1402.03 317.752 1405.78 327.169C1407.5 331.491 1409.12 335.855 1410.75 340.211C1410.99 340.863 1411.17 341.452 1412 341.472V329.684V329.692Z" fill="#B3303A"/>
<path d="M974.28 63.62C974.393 62.5479 974.003 61.5318 973.537 60.6674C966.537 47.6276 961.623 33.7571 957.048 19.763C954.913 13.2319 953.25 6.54644 951.044 0.0405807C949.288 -5.14614 947.41 -10.3188 945.001 -15.2586C943.159 -19.0307 941.428 -22.8674 939.166 -26.4291C938.675 -27.2037 938.153 -28.0149 938.133 -29H934.744C936.207 -24.7788 937.752 -20.5856 939.107 -16.3335C940.717 -11.2871 942.072 -6.15935 943.702 -1.11857C945.532 4.54247 947.534 10.1502 949.488 15.7719C952.95 25.73 957.551 35.2081 962.027 44.7339C963.845 48.6043 966.011 52.3344 968.268 55.9774C969.971 58.728 972.007 61.2821 974.28 63.62Z" fill="white"/>
<path d="M1412 488.549C1410.74 488.625 1409.9 487.839 1409.11 487.059C1404.12 482.119 1398.95 477.337 1394.21 472.161C1386.59 463.814 1379.52 454.996 1373.2 445.61C1372.83 445.068 1372.56 444.465 1371.93 444.148C1371.92 445.986 1372.68 447.594 1373.55 449.133C1378.78 458.271 1384.4 467.174 1390.86 475.487C1395.31 481.207 1399.81 486.919 1405 492.044C1406.64 493.669 1407.98 495.619 1409.7 497.205C1410.38 497.828 1410.92 498.665 1412 498.653V488.549Z" fill="#20284A"/>
<path d="M1412 341.48C1411.17 341.46 1410.99 340.874 1410.75 340.22C1409.12 335.861 1407.5 331.499 1405.78 327.177C1402.03 317.761 1398.43 308.283 1394.4 298.987C1390.08 289.007 1385.55 279.107 1380.52 269.453C1377.43 263.502 1374.06 257.69 1370.84 251.804C1370.45 251.1 1370 250.578 1369.15 250.513C1369.11 251.849 1370.22 252.643 1370.72 253.724C1373.79 260.233 1377.1 266.621 1380.25 273.09C1386.7 286.349 1392.18 300.009 1397.65 313.669C1399.66 318.67 1401.51 323.747 1403.24 328.867C1405.27 334.862 1407.76 340.703 1410.11 346.585C1410.47 347.475 1410.67 348.651 1412 348.777V341.48H1412Z" fill="#B3303A"/>
<path d="M965.808 -29C965.819 -26.3337 966.771 -23.875 967.714 -21.4669C969.375 -17.2176 970.744 -12.8617 972.506 -8.64606C974.876 -2.9822 977.047 2.75462 979.925 8.20517C981.094 10.4168 982.004 12.7857 983.173 15.0141C983.503 15.6428 983.633 16.4427 984.59 16.816C985.158 16.2014 984.986 15.539 984.771 14.8233C982.464 7.07409 980.306 -0.722836 977.838 -8.42152C975.994 -14.1836 973.484 -19.7099 970.871 -25.1745C970.27 -26.4291 969.409 -27.577 969.197 -29H965.808Z" fill="white"/>
<path d="M1400.72 340.34C1401.87 345.042 1403.99 349.386 1405.82 353.829C1407.2 357.164 1408.37 360.602 1410.2 363.742C1410.64 364.509 1410.77 365.592 1412 365.617V361.127C1410.51 361.149 1410.25 359.9 1409.76 358.943C1407.17 353.885 1404.95 348.665 1402.71 343.445C1402.25 342.358 1402.32 340.767 1400.72 340.34Z" fill="#B3303A"/>
<path d="M1314.93 330.211C1313.35 326.403 1310.93 323.063 1308.79 319.58C1304.04 311.872 1298.94 304.387 1293.41 297.213C1290.21 293.079 1286.91 289.035 1283.61 284.979C1283.03 284.26 1282.28 283.682 1281.6 283.04C1280.82 283.135 1280.09 283.082 1279.51 282.47C1278.48 281.375 1277.2 280.57 1276.09 279.585C1270.75 274.864 1264.89 270.89 1258.94 266.999C1249.96 261.134 1240.52 256.205 1230.59 252.172C1222.86 249.034 1214.96 246.385 1206.89 244.226C1199.39 242.222 1191.79 240.695 1184.15 239.39C1179.92 238.669 1175.66 238.116 1171.39 237.659C1168.7 237.37 1165.99 237.151 1163.29 236.948C1158.44 236.586 1153.62 235.949 1148.75 235.944C1140.84 235.938 1132.94 236.084 1125.04 235.899C1117.51 235.722 1110.03 236.314 1102.53 236.598C1099.84 236.699 1097.09 236.772 1094.42 237.162C1089.24 237.92 1083.99 237.908 1078.81 238.663C1077.16 238.902 1075.51 239.337 1073.81 239.32C1069.59 239.278 1065.47 240.28 1061.28 240.65C1057.78 240.962 1054.24 241.476 1050.75 242.079C1045.23 243.033 1039.69 243.802 1034.15 244.633C1030.92 245.119 1027.7 245.871 1024.46 245.978C1018.28 246.18 1012.12 246.056 1005.96 245.035C1000.22 244.083 994.556 242.96 989.01 241.271C979.541 238.388 970.617 234.293 962.199 229.107C954.297 224.234 946.76 218.896 940.115 212.379C935.701 208.051 931.338 203.675 927.272 199.019C926.244 197.843 925.015 196.718 925.176 194.919C923.592 193.484 922.05 192.005 920.421 190.627C913.273 184.579 907.015 177.705 901.102 170.481C899.34 168.328 897.916 165.895 895.815 164.017C895.674 165.387 896.174 166.639 896.812 167.75C899.376 172.196 901.808 176.715 904.51 181.087C907.605 186.097 910.941 190.939 914.507 195.603C917.673 199.746 920.827 203.936 924.6 207.58C926.091 209.019 927.221 210.754 928.678 212.197C930.669 214.167 932.88 215.907 934.947 217.804C937.896 220.513 941.042 223.03 944.252 225.433C952.064 231.273 960.344 236.303 969.304 240.314C976.014 243.317 982.873 245.717 990.001 247.375C994.085 248.327 998.239 248.944 1002.41 249.52C1007.96 250.286 1013.49 250.039 1019 249.862C1023.17 249.73 1027.29 248.605 1031.44 247.97C1035.87 247.297 1040.31 246.668 1044.74 246.045C1047.79 245.615 1050.9 245.43 1053.89 244.759C1056.29 244.223 1058.72 244.215 1061.12 243.898C1065.18 243.365 1069.3 243.05 1073.36 242.525C1078.09 241.913 1082.86 241.824 1087.57 241.057C1089.76 240.701 1092.06 240.583 1094.26 240.558C1099.06 240.502 1103.81 239.994 1108.58 239.769C1118.26 239.309 1127.93 239.068 1137.59 239.418C1142.99 239.615 1148.43 239.632 1153.84 240.328C1156.59 240.684 1159.43 240.611 1162.22 240.973C1166.02 241.464 1169.86 241.641 1173.63 242.253C1178.7 243.075 1183.78 243.794 1188.81 244.869C1194.84 246.16 1200.84 247.586 1206.78 249.27C1218.47 252.584 1229.66 257.089 1240.43 262.68C1249.67 267.482 1258.45 273.011 1266.72 279.338C1271.02 282.633 1275.1 286.197 1279.11 289.84C1281.61 292.102 1284.19 294.283 1286.47 296.753C1291.47 302.173 1296.52 307.539 1301.1 313.332C1305.1 318.381 1309.06 323.444 1312.69 328.757C1313.24 329.549 1313.82 330.279 1314.93 330.203L1314.93 330.211Z" fill="white"/>
<path d="M1119.94 243.261C1113.08 242.929 1106.07 243.867 1099.03 243.929C1093.72 243.974 1088.38 244.482 1083.09 245.034C1076.4 245.731 1069.7 246.264 1063.02 247.03C1056.25 247.805 1049.49 248.742 1042.72 249.5C1036.79 250.162 1030.92 251.324 1025.02 252.267C1024.52 252.349 1024.1 252.545 1024.13 253.129C1024.17 253.713 1024.64 253.825 1025.12 253.915C1028.06 254.471 1030.97 255.192 1033.93 255.557C1038.21 256.084 1042.52 256.152 1046.84 256.227C1050.64 256.295 1054.28 255.526 1057.97 254.922C1062.2 254.229 1066.43 253.477 1070.66 252.806C1075.45 252.048 1080.23 251.128 1085.05 250.707C1088.78 250.381 1092.44 249.604 1096.18 249.362C1100.36 249.093 1104.51 248.36 1108.68 247.844C1110.72 247.591 1112.8 247.429 1114.81 247.333C1118.09 247.179 1121.37 246.825 1124.6 246.5C1128.98 246.059 1133.4 246.5 1137.75 245.596C1139.01 245.332 1140.37 245.52 1141.69 245.498C1142.44 245.486 1143.2 245.506 1143.95 245.441C1144.53 245.391 1145.14 245.141 1145.09 244.473C1145.04 243.699 1144.29 243.884 1143.77 243.822C1143.67 243.811 1143.58 243.814 1143.49 243.819C1135.69 244.237 1127.92 243.014 1119.94 243.266L1119.94 243.261Z" fill="white"/>
<path d="M1380.93 292.65C1381.58 296.054 1383.82 298.805 1384.86 302.049C1385.01 302.532 1385.47 302.709 1385.94 302.796C1385.97 302.591 1386 302.386 1386.02 302.181C1385.99 301.637 1385.95 301.089 1385.91 300.542C1385.21 300.463 1384.88 300.065 1384.89 299.377C1384.66 298.454 1384.44 297.533 1384.22 296.61C1383.52 296.534 1383.19 296.141 1383.2 295.445C1383.16 294.898 1383.12 294.35 1383.08 293.803C1382.16 293.789 1381.91 292.551 1380.93 292.647L1380.93 292.65Z" fill="#B3303A"/>
<path d="M940.46 15.3481C940.104 17.2455 940.612 18.66 942.078 19.8444C942.228 18.1015 941.508 16.6645 940.46 15.3481Z" fill="#B3303A"/>
<path d="M1393.21 319.594C1392.76 320.89 1393.12 321.859 1394.37 322.479C1394.31 321.387 1394.16 320.335 1393.21 319.594Z" fill="#B3303A"/>
<path d="M1386 303.332C1386.1 304.213 1385.67 305.344 1387.09 305.597C1387.11 305.389 1387.14 305.184 1387.16 304.976C1387.16 304.794 1387.15 304.614 1387.13 304.435C1386.75 304.067 1386.38 303.699 1386 303.332Z" fill="#63140F"/>
<path d="M1386 303.332C1386.38 303.699 1386.75 304.067 1387.13 304.435C1387.05 303.542 1387.5 302.394 1386.02 302.181C1386 302.386 1385.97 302.591 1385.94 302.796C1385.97 302.975 1385.99 303.152 1385.99 303.332H1386Z" fill="#B3303A"/>
<path d="M1388.25 308.37C1387.73 309.33 1387.75 309.352 1389.22 309.546C1389.41 308.735 1389.01 308.412 1388.25 308.37Z" fill="#B3303A"/>
<path d="M1396.23 328.533C1396.15 329.24 1396.5 329.639 1397.17 329.79C1397.34 329.016 1396.98 328.634 1396.23 328.533Z" fill="#B3303A"/>
<path d="M1394.53 324.048C1394.46 324.755 1394.81 325.151 1395.48 325.297C1395.65 324.519 1395.28 324.138 1394.53 324.048Z" fill="#B3303A"/>
<path d="M1391.65 316.784C1390.82 317.643 1391.49 317.789 1392.2 317.918C1392.24 317.433 1392.14 317.017 1391.65 316.784Z" fill="#B3303A"/>
<path d="M1387.16 304.977C1387.14 305.184 1387.11 305.389 1387.09 305.597C1387.32 305.981 1387.69 306.147 1388.11 306.231C1388.31 305.428 1387.93 305.061 1387.16 304.977Z" fill="#B3303A"/>
<path d="M1384.89 299.377C1384.88 300.065 1385.21 300.463 1385.91 300.542C1386.01 299.77 1385.62 299.425 1384.89 299.377Z" fill="#B3303A"/>
<path d="M1383.2 295.448C1383.19 296.141 1383.53 296.537 1384.23 296.613C1384.32 295.844 1383.93 295.493 1383.2 295.448Z" fill="#B3303A"/>
<path d="M942.171 20.3384C942.098 20.7931 942.12 21.2197 942.547 21.5172C943.532 20.7762 942.849 20.5573 942.171 20.3384Z" fill="#B3303A"/>
<path d="M1369.05 249.452C1369.08 248.728 1368.73 248.335 1368 248.276C1367.95 249.02 1368.34 249.385 1369.05 249.452Z" fill="#600F0B"/>
<path d="M1399.61 337.517C1399.55 338.219 1399.88 338.62 1400.55 338.774C1400.73 337.994 1400.36 337.618 1399.61 337.517Z" fill="#B3303A"/>
<path d="M1397.93 333.023C1397.85 333.725 1398.19 334.127 1398.86 334.284C1399.04 333.506 1398.67 333.127 1397.93 333.023Z" fill="#B3303A"/>
<path d="M533.722 751.803C536.58 751.548 539.062 750.134 541.711 749.235C543.041 748.784 544.354 748.281 545.665 747.773C546.105 747.602 546.517 747.313 546.43 746.757C546.356 746.305 545.933 746.215 545.56 746.232C541.067 746.42 536.585 745.982 532.067 746.575C527.789 747.136 523.592 747.902 519.407 748.918C516.371 749.656 513.607 751.032 510.703 752.076C498.185 756.583 485.655 761.037 472.941 764.989C462.837 768.13 452.687 771.099 442.476 773.867C438.149 775.037 433.764 775.98 429.415 777.066C427.74 777.484 426.094 778.023 424.45 778.501C424.659 779.39 425.196 779.303 425.619 779.247C438.573 777.51 451.436 775.245 464.209 772.491C465.206 772.275 466.146 771.795 467.112 771.439C467.129 770.6 467.739 770.426 468.4 770.215C470.8 769.441 473.184 768.613 475.579 767.816C488.111 763.645 500.695 759.628 512.96 754.697C518.899 752.309 525.261 751.646 531.542 750.743C532.4 750.619 533.524 750.383 533.728 751.801L533.722 751.803Z" fill="white"/>
<path d="M907.072 141.081C907.122 143.801 908.986 145.726 910.302 147.803C914.146 153.868 918.283 159.748 922.787 165.356C928.658 172.67 935.235 179.359 942.157 185.654C949.008 191.885 956.763 196.962 964.837 201.579C971.631 205.463 978.739 208.604 986.107 211.096C992.469 213.249 999.021 214.81 1005.71 215.8C1012.05 216.738 1018.4 217.049 1024.77 216.822C1028.31 216.696 1031.81 216.014 1035.32 215.466C1038.91 214.905 1042.54 214.52 1046.15 214.055C1049.94 213.563 1053.74 213.126 1057.52 212.55C1059.46 212.255 1061.44 212.104 1063.37 211.95C1068.21 211.559 1073.04 210.981 1077.88 210.549C1081.03 210.268 1084.27 210.616 1087.36 209.648C1087.53 209.592 1087.73 209.572 1087.91 209.586C1092.06 209.926 1096.14 209.118 1100.26 208.93C1112.47 208.368 1124.69 208.205 1136.89 208.576C1141.71 208.722 1146.61 208.615 1151.44 209.474C1153.82 209.895 1156.28 209.822 1158.7 210.033C1170.55 211.06 1182.21 212.999 1193.81 215.553C1204.83 217.978 1215.57 221.27 1225.96 225.559C1235.05 229.312 1243.82 233.766 1252.22 238.944C1258.77 242.98 1265.02 247.398 1270.97 252.225C1278.17 258.074 1284.99 264.384 1291.23 271.238C1295.17 275.574 1299.14 279.924 1302.67 284.637C1303.18 285.327 1303.75 285.944 1304.74 285.872C1302.89 282.083 1300.32 278.759 1297.93 275.321C1293.63 269.119 1288.95 263.196 1284.13 257.387C1278.68 250.827 1272.75 244.723 1266.62 238.804C1256.15 228.697 1244.6 219.996 1232.05 212.587C1231.82 212.449 1231.52 212.429 1231.25 212.354C1230.78 213.078 1230.18 212.856 1229.52 212.657C1221.18 210.19 1212.73 208.242 1204.18 206.594C1195.27 204.877 1186.28 203.99 1177.3 202.89C1171.37 202.163 1165.35 201.975 1159.39 201.851C1149.93 201.655 1140.44 201.256 1130.96 202.191C1126.04 202.673 1121.05 202.432 1116.08 202.73C1111.98 202.977 1107.89 203.762 1103.75 203.426C1103.56 203.412 1103.37 203.443 1103.19 203.482C1099.98 204.195 1096.67 203.962 1093.45 204.534C1090.77 205.011 1088.05 204.967 1085.36 205.258C1081.37 205.691 1077.4 206.258 1073.42 206.768C1069.72 207.243 1066.03 207.798 1062.32 208.175C1058.51 208.562 1054.79 209.502 1050.93 209.654C1047.94 209.772 1044.98 209.468 1042 209.55C1036.35 209.701 1030.85 208.624 1025.35 207.498C1017.7 205.932 1010.32 203.521 1003.23 200.319C997.507 197.734 991.874 194.933 986.57 191.542C985.76 191.023 985.031 190.448 985.014 189.367C982.145 188.011 979.098 187.113 976.135 185.999C967.045 182.572 957.74 179.67 949.192 174.935C941.493 170.669 934.111 165.962 927.28 160.383C921.55 155.701 916.309 150.528 911.059 145.347C909.67 143.975 908.882 142.052 907.066 141.087L907.072 141.081Z" fill="#2C2F4C"/>
<path d="M985.017 189.361C985.034 190.442 985.76 191.017 986.573 191.537C991.879 194.927 997.51 197.731 1003.23 200.313C1010.32 203.516 1017.7 205.926 1025.35 207.493C1030.85 208.618 1036.36 209.696 1042 209.544C1044.98 209.463 1047.94 209.766 1050.93 209.648C1054.8 209.494 1058.51 208.553 1062.32 208.169C1066.03 207.793 1069.73 207.24 1073.42 206.763C1077.4 206.252 1081.37 205.685 1085.36 205.253C1088.05 204.961 1090.77 205.006 1093.46 204.529C1096.67 203.959 1099.98 204.189 1103.19 203.476C1103.37 203.437 1103.57 203.403 1103.75 203.42C1107.89 203.757 1111.98 202.971 1116.08 202.724C1121.05 202.424 1126.04 202.668 1130.97 202.185C1140.45 201.253 1149.93 201.652 1159.4 201.846C1165.35 201.969 1171.37 202.157 1177.31 202.884C1186.28 203.981 1195.27 204.871 1204.18 206.589C1212.73 208.236 1221.18 210.184 1229.52 212.651C1230.19 212.848 1230.78 213.072 1231.25 212.348C1229.77 210.555 1227.54 209.847 1225.61 208.809C1221.41 206.549 1217.09 204.43 1212.65 202.659C1208.68 201.074 1204.43 200.274 1200.21 199.491C1194.15 198.365 1188.12 197.094 1182.03 196.246C1178.06 195.696 1174.08 195.194 1170.06 194.891C1165.03 194.512 1159.98 194.228 1154.97 193.731C1148.01 193.041 1141.09 193.51 1134.15 193.316C1129.92 193.198 1125.68 193.294 1121.45 193.294C1113.09 193.294 1104.75 193.841 1096.41 194.007C1091.23 194.108 1085.99 194.697 1080.8 195.379C1078.14 195.727 1075.43 196.201 1072.71 196.089C1070.81 196.01 1068.99 196.521 1067.15 196.763C1061.97 197.436 1056.77 197.916 1051.61 198.764C1043.74 200.06 1035.74 200.549 1027.79 199.943C1021.3 199.449 1014.72 198.941 1008.42 197.178C1002.94 195.64 997.632 193.462 992.246 191.565C989.868 190.728 987.553 189.681 985.014 189.367L985.017 189.361Z" fill="#2C2F4C"/>
<path d="M1066.23 183.67C1066.87 182.19 1068.3 182.174 1069.55 182.089C1073.2 181.851 1076.73 180.905 1080.35 180.484C1082.48 180.237 1084.64 180.139 1086.77 179.959C1089.65 179.715 1092.59 179.485 1095.42 179.109C1098.77 178.665 1102.19 179.193 1105.47 178.202C1105.64 178.149 1105.84 178.129 1106.03 178.143C1110.26 178.472 1114.44 177.602 1118.66 177.54C1130.03 177.377 1141.4 176.431 1152.75 177.124C1158.16 177.456 1163.59 177.265 1169.01 177.966C1172.03 178.359 1175.15 178.525 1178.23 178.721C1181.96 178.957 1185.68 179.361 1189.37 179.914C1194.72 180.717 1200.07 181.601 1205.38 182.656C1218.26 185.224 1230.86 188.783 1243.03 193.768C1247.19 195.469 1251.19 197.543 1255.51 198.842C1255.42 197.481 1254.17 197.394 1253.31 196.965C1246.44 193.51 1239.38 190.49 1232.16 187.795C1223.11 184.411 1213.81 181.882 1204.38 179.813C1198.54 178.533 1192.67 177.433 1186.75 176.58C1183.06 176.047 1179.32 175.822 1175.62 175.283C1173.2 174.932 1170.72 175.059 1168.36 174.629C1164.37 173.902 1160.34 174.163 1156.34 173.74C1150.29 173.1 1144.14 174.18 1138.06 173.094C1137.43 172.982 1136.7 172.951 1136.1 173.153C1134.17 173.81 1132.2 173.616 1130.24 173.625C1125.06 173.644 1119.88 173.63 1114.71 173.636C1113.96 173.636 1113.17 173.532 1112.45 173.697C1108.03 174.716 1103.5 174.155 1099.02 174.624C1095.51 174.991 1091.94 175.3 1088.39 175.474C1086.18 175.584 1083.88 175.567 1081.69 175.991C1077.27 176.841 1072.77 176.872 1068.34 177.526C1064.46 178.098 1060.52 178.244 1056.64 178.845C1053.4 179.347 1050.19 179.836 1046.89 179.838C1044.16 179.838 1041.48 179.409 1038.77 179.302C1034.92 179.148 1031.16 178.477 1027.39 177.823C1019.71 176.49 1012.23 174.433 1004.99 171.522C1000.39 169.67 995.717 167.983 991.441 165.381C990.038 164.525 988.612 163.476 986.793 163.543C988.061 164.91 989.445 166.156 991.227 166.785C992.306 167.166 993.226 167.753 994.203 168.306C1002.52 173.027 1011.23 176.771 1020.48 179.373C1025.7 180.84 1031 181.845 1036.28 183.004C1038.27 183.442 1040.34 183.552 1042.38 183.712C1043.71 183.816 1044.97 183.998 1046.03 184.865C1050.53 184.716 1054.99 184.315 1059.46 183.785C1061.69 183.521 1063.97 183.689 1066.23 183.661L1066.23 183.67Z" fill="#2C2F4C"/>
<path d="M986.79 163.551C988.609 163.481 990.035 164.534 991.439 165.39C995.711 167.992 1000.38 169.678 1004.99 171.531C1012.22 174.441 1019.71 176.501 1027.39 177.832C1031.15 178.486 1034.92 179.156 1038.77 179.311C1041.47 179.42 1044.16 179.85 1046.89 179.847C1050.19 179.847 1053.4 179.356 1056.64 178.853C1060.51 178.253 1064.46 178.104 1068.33 177.534C1072.77 176.88 1077.27 176.849 1081.68 175.999C1083.88 175.575 1086.17 175.592 1088.38 175.483C1091.94 175.308 1095.51 175 1099.02 174.632C1103.49 174.161 1108.02 174.725 1112.45 173.706C1113.17 173.54 1113.95 173.644 1114.7 173.644C1119.88 173.641 1125.06 173.655 1130.23 173.633C1132.2 173.624 1134.17 173.818 1136.1 173.161C1136.69 172.959 1137.43 172.987 1138.06 173.102C1144.13 174.186 1150.29 173.105 1156.33 173.748C1160.34 174.172 1164.37 173.911 1168.36 174.638C1170.72 175.067 1173.19 174.941 1175.62 175.292C1179.31 175.831 1183.05 176.055 1186.75 176.588C1192.66 177.442 1198.54 178.542 1204.37 179.822C1213.81 181.893 1223.1 184.419 1232.16 187.804C1239.38 190.498 1246.44 193.518 1253.31 196.973C1254.17 197.403 1255.42 197.49 1255.51 198.851C1256.49 198.873 1257.41 199.025 1257.86 200.063C1259.71 200.358 1261.62 200.554 1262.3 202.76C1262.88 202.8 1263.46 202.836 1264.05 202.873C1264.05 202.659 1264.05 202.449 1264.05 202.236C1262.66 200.445 1260.77 199.168 1258.99 197.86C1255.23 195.095 1251.15 192.724 1247.41 189.951C1241.04 185.219 1233.91 181.904 1226.95 178.264C1221.64 175.482 1215.95 173.515 1210.37 171.32C1200.84 167.576 1190.96 165.028 1181.01 162.749C1175.11 161.396 1169.13 160.304 1163.1 159.577C1157.64 158.92 1152.2 158.031 1146.73 157.444C1144.04 157.155 1141.31 156.989 1138.62 156.897C1132.25 156.681 1125.9 156.074 1119.5 156.184C1108.4 156.375 1097.29 155.954 1086.2 156.372C1081.56 156.549 1076.83 156.279 1072.22 157.301C1071.77 157.402 1071.28 157.357 1070.82 157.357C1066.32 157.354 1061.87 158.053 1057.4 158.359C1054.51 158.558 1051.64 158.988 1048.74 159.089C1046.23 159.176 1043.73 159.597 1041.24 159.993C1039.3 160.298 1037.35 160.29 1035.39 160.607C1032.37 161.101 1029.26 161.668 1026.23 161.595C1023.54 161.531 1020.78 161.632 1018.13 161.188C1014.26 160.543 1010.34 160.416 1006.47 159.692C1002.43 158.934 998.363 158.255 994.404 157.175C986.073 154.904 977.988 151.901 970.197 148.199C968.265 147.281 966.387 146.187 964.478 145.187C963.645 144.752 962.806 144.306 961.806 144.494C965.133 147.638 968.821 150.329 972.487 153.06C976.683 156.189 980.719 159.535 985.113 162.398C985.875 162.398 986.627 162.412 986.703 163.442L986.788 163.543L986.79 163.551Z" fill="white"/>
<path d="M953.978 98.97C955.012 101.712 956.943 103.893 958.74 106.11C959.861 107.494 960.906 108.875 961.784 110.424C962.552 111.78 963.216 113.278 964.687 114.115C966.308 114.365 967 115.358 966.963 116.93V116.919C968.047 116.919 968.598 117.752 969.253 118.398C971.792 120.901 974.255 123.481 976.853 125.92C984.376 132.978 992.594 139.111 1001.56 144.267C1009.96 149.097 1018.8 152.903 1027.97 156.041C1030.61 156.944 1032.99 157.276 1035.81 156.956C1038.85 156.61 1041.97 156.4 1045.03 156.108C1048 155.825 1051.01 155.881 1053.96 155.244C1056.14 154.772 1058.44 154.831 1060.66 154.708C1064.21 154.508 1067.79 154.256 1071.3 153.874C1077.19 153.231 1083.12 153.964 1088.97 152.917C1089.7 152.785 1090.47 152.875 1091.22 152.875C1099.22 152.869 1107.22 152.838 1115.21 152.875C1120.47 152.9 1125.71 153.349 1130.95 153.568C1134.4 153.711 1137.89 153.706 1141.33 154.051C1144.13 154.331 1146.87 154.267 1149.66 154.042C1156.04 153.529 1162.4 154.545 1168.78 154.665C1174.74 154.778 1180.71 155.479 1186.62 156.307C1201.25 158.359 1215.76 160.972 1229.92 165.364C1241.79 169.05 1253.2 173.779 1264.11 179.648C1274.01 184.972 1283.34 191.2 1292.04 198.343C1295.36 201.077 1298.63 203.855 1301.72 206.847C1303.67 208.727 1305.89 210.319 1307.74 212.32C1308.75 213.417 1309.82 214.439 1310.7 215.677C1311.42 216.69 1312.2 217.897 1313.72 217.975C1313.74 217.594 1313.75 217.212 1313.77 216.83C1313.72 216.378 1313.6 215.969 1313.17 215.725C1311.7 215.654 1311.42 214.697 1311.46 213.49C1310.02 210.934 1307.79 209.067 1305.79 206.993C1305.02 206.193 1304.08 205.531 1303.56 204.506C1302.24 204.489 1301.63 203.423 1300.86 202.651C1294.93 196.678 1288.86 190.863 1282.15 185.713C1272.17 178.053 1261.6 171.343 1250.33 165.743C1246.64 163.911 1242.81 162.361 1239.05 160.666C1232.71 157.806 1226.15 155.516 1219.49 153.593C1210.15 150.899 1200.69 148.704 1191.08 147.062C1183.53 145.771 1175.94 144.867 1168.35 143.969C1163.16 143.355 1157.9 143.119 1152.68 142.844C1145.76 142.479 1138.81 142.754 1131.86 142.28C1128.25 142.033 1124.6 143.018 1120.93 142.774C1119.25 142.661 1117.57 142.841 1115.91 142.305C1114.04 141.704 1112.23 142.765 1110.35 142.785C1106.88 142.821 1103.43 142.925 1099.96 143.183C1094.37 143.602 1088.77 144.042 1083.17 144.351C1078.12 144.632 1073.13 145.387 1068.08 145.698C1066.16 145.816 1064.17 145.956 1062.23 146.262C1059.09 146.759 1055.96 147.253 1052.77 147.256C1048.92 147.259 1045.15 146.504 1041.33 146.192C1037.12 145.847 1032.98 145.162 1028.88 144.264C1016.23 141.488 1004.34 136.658 993.057 130.41C989.304 128.333 985.7 125.967 982.148 123.523C978.208 120.811 974.492 117.839 970.849 114.788C967.629 112.091 964.628 109.105 961.623 106.166C959.773 104.356 958.113 102.296 956.26 100.443C955.61 99.7923 955.054 98.9644 953.973 98.9559L953.978 98.97Z" fill="white"/>
<path d="M1320.51 225.831C1319.88 223.749 1318.17 222.399 1316.96 220.706C1316.51 220.835 1315.87 221.231 1316.22 221.56C1317.7 222.932 1318.13 225.374 1320.51 225.831H1320.51Z" fill="#B3303A"/>
<path d="M1264.04 202.241C1264.04 202.452 1264.04 202.665 1264.05 202.878C1264.06 203.507 1263.9 204.262 1264.8 204.411C1265.37 204.503 1265.62 204.096 1265.7 203.591C1265.46 202.758 1264.86 202.368 1264.04 202.244L1264.04 202.241Z" fill="#999DA6"/>
<path d="M1313.77 216.833C1313.76 217.215 1313.74 217.597 1313.73 217.978C1314.26 218.248 1314.74 218.629 1315.39 218.618C1315.42 217.515 1314.84 216.954 1313.77 216.833Z" fill="#B3303A"/>
<path d="M1322.21 228.074C1322.19 227.268 1321.83 226.699 1321.05 226.418C1321.04 227.243 1321.06 228.049 1322.21 228.074Z" fill="#B3303A"/>
<path d="M960.109 143.357C960.468 144.042 961.01 144.46 961.804 144.514C961.832 143.268 960.959 143.329 960.109 143.357Z" fill="#8D4F4A"/>
<path d="M925.182 194.927C925.021 196.723 926.249 197.852 927.277 199.028C931.344 203.684 935.707 208.057 940.121 212.387C946.763 218.904 954.303 224.243 962.205 229.115C970.62 234.305 979.547 238.4 989.016 241.279C994.562 242.969 1000.23 244.091 1005.97 245.043C1012.13 246.065 1018.29 246.191 1024.46 245.986C1027.71 245.879 1030.93 245.127 1034.16 244.642C1039.69 243.811 1045.24 243.039 1050.75 242.088C1054.25 241.484 1057.78 240.97 1061.28 240.659C1065.47 240.286 1069.6 239.284 1073.82 239.329C1075.52 239.345 1077.17 238.913 1078.82 238.672C1084 237.917 1089.25 237.925 1094.43 237.17C1097.09 236.78 1099.84 236.71 1102.53 236.606C1110.03 236.32 1117.52 235.73 1125.04 235.907C1132.94 236.092 1140.85 235.947 1148.75 235.952C1153.62 235.955 1158.45 236.595 1163.29 236.957C1166 237.159 1168.7 237.378 1171.4 237.667C1175.66 238.125 1179.92 238.68 1184.15 239.399C1191.8 240.701 1199.39 242.228 1206.9 244.235C1214.97 246.393 1222.86 249.04 1230.59 252.18C1240.53 256.211 1249.97 261.142 1258.94 267.008C1264.89 270.901 1270.76 274.872 1276.09 279.593C1277.2 280.578 1278.49 281.384 1279.52 282.478C1280.09 283.09 1280.83 283.146 1281.6 283.048C1281.14 282.352 1280.77 281.549 1280.18 280.979C1276.74 277.659 1273.87 273.814 1270.36 270.561C1259.21 260.247 1247.47 250.698 1234.37 242.896C1232.76 241.936 1231.01 241.192 1229.48 240.12C1226.51 238.035 1222.89 238.167 1219.62 237.128C1214.9 235.629 1210.06 234.512 1205.19 233.578C1199.88 232.559 1194.55 231.633 1189.2 230.813C1185.51 230.249 1181.79 229.946 1178.11 229.331C1176 228.98 1173.81 228.79 1171.7 228.75C1166.82 228.658 1161.99 227.751 1157.09 228.046C1155.24 228.158 1153.33 228.312 1151.51 227.614C1151.18 227.487 1150.74 227.468 1150.4 227.566C1147.07 228.52 1143.67 227.903 1140.31 228.063C1139.28 228.11 1138.26 228.049 1137.24 227.74C1136.46 227.501 1135.52 227.378 1134.74 227.58C1131.4 228.45 1128 227.852 1124.64 228.096C1120.01 228.433 1115.34 228.357 1110.73 229.126C1110.18 229.219 1109.61 229.208 1109.04 229.194C1104.44 229.081 1099.91 229.78 1095.35 230.187C1092.56 230.434 1089.78 230.9 1086.96 230.883C1085.92 230.878 1084.93 231.147 1083.92 231.29C1080.22 231.815 1076.49 232.129 1072.79 232.579C1069.08 233.025 1065.39 233.516 1061.69 234.03C1057.25 234.644 1052.83 235.343 1048.39 235.927C1045.52 236.306 1042.66 236.772 1039.81 237.232C1035.58 237.911 1031.34 237.807 1027.17 237.468C1023.48 237.167 1019.76 236.73 1016.08 236.048C1012.11 235.312 1008.25 234.265 1004.36 233.255C995.474 230.945 987.392 226.777 979.276 222.679C978.443 222.258 977.508 221.857 976.912 221.189C975.232 219.303 972.905 218.862 970.682 218.25C958.183 214.798 946.591 209.387 935.763 202.334C932.939 200.496 930.245 198.461 927.54 196.451C926.783 195.887 926.032 195.345 925.185 194.936L925.182 194.927Z" fill="white"/>
<path d="M1022.92 223.544C1024.86 225.262 1027.14 225.416 1029.26 225.806C1033.94 226.671 1038.68 227.134 1043.41 227.678C1049.69 228.402 1055.68 227.434 1061.78 226.525C1066.39 225.837 1071.06 225.478 1075.65 224.667C1080.9 223.74 1086.2 223.269 1091.47 222.635C1095.82 222.112 1100.2 221.663 1104.57 221.24C1107.52 220.951 1110.52 220.967 1113.48 220.361C1116.12 219.822 1118.91 219.859 1121.58 219.805C1127.77 219.682 1133.93 219.011 1140.14 219.025C1147.07 219.042 1154 218.338 1160.95 218.534C1161.32 218.545 1161.7 218.514 1162.09 217.978C1161.02 216.954 1159.49 217.209 1158.3 217.027C1153.97 216.353 1149.62 215.671 1145.27 215.289C1141.18 214.93 1137.08 214.279 1132.93 214.599C1129.08 214.894 1125.28 213.594 1121.43 214.074C1115.82 214.773 1110.13 214.116 1104.57 214.756C1099.19 215.376 1093.78 215.623 1088.39 216.162C1085.34 216.468 1082.24 216.69 1079.17 216.954C1074.72 217.338 1070.25 217.664 1065.82 218.399C1062.14 219.011 1058.39 219.219 1054.69 219.679C1050.34 220.218 1045.97 220.729 1041.65 221.45C1036.2 222.359 1030.78 223.375 1025.21 223.05C1024.57 223.013 1023.89 222.907 1022.92 223.544H1022.92Z" fill="white"/>
<path d="M953.978 98.97C955.06 98.9756 955.616 99.8064 956.266 100.458C958.118 102.31 959.779 104.37 961.628 106.18C964.633 109.119 967.632 112.102 970.854 114.802C974.495 117.853 978.214 120.825 982.153 123.537C985.706 125.981 989.309 128.347 993.062 130.424C1004.35 136.672 1016.24 141.502 1028.89 144.278C1032.98 145.176 1037.13 145.861 1041.34 146.206C1045.15 146.518 1048.92 147.273 1052.77 147.27C1055.96 147.267 1059.1 146.773 1062.24 146.276C1064.18 145.97 1066.16 145.83 1068.09 145.712C1073.13 145.401 1078.13 144.646 1083.18 144.365C1088.77 144.053 1094.37 143.616 1099.97 143.197C1103.44 142.936 1106.89 142.833 1110.35 142.799C1112.23 142.779 1114.04 141.716 1115.91 142.319C1117.58 142.855 1119.26 142.675 1120.93 142.788C1124.61 143.035 1128.25 142.047 1131.87 142.294C1138.81 142.768 1145.76 142.493 1152.69 142.858C1157.91 143.133 1163.16 143.369 1168.35 143.983C1175.94 144.884 1183.54 145.785 1191.09 147.076C1200.69 148.718 1210.16 150.913 1219.49 153.607C1226.15 155.527 1232.72 157.82 1239.05 160.68C1242.81 162.375 1246.64 163.925 1250.33 165.757C1261.61 171.357 1272.17 178.067 1282.15 185.727C1288.86 190.874 1294.93 196.69 1300.87 202.665C1301.64 203.437 1302.25 204.506 1303.56 204.52C1303.26 203.094 1302.39 201.989 1301.4 201.004C1296.57 196.154 1291.85 191.177 1286.8 186.558C1281.99 182.154 1276.83 178.11 1271.52 174.301C1262.06 167.528 1252.13 161.533 1241.57 156.602C1231.36 151.842 1220.85 147.938 1209.99 144.904C1202.32 142.765 1194.57 141.033 1186.76 139.599C1180.99 138.538 1175.17 137.702 1169.31 137.107C1162.43 136.408 1155.54 135.88 1148.65 135.336C1142.34 134.836 1136.08 135.179 1129.8 134.918C1128.49 134.864 1127.17 135.092 1125.9 134.536C1125.57 134.393 1125.13 134.334 1124.79 134.427C1121.27 135.415 1117.68 134.668 1114.14 134.929C1112.24 135.069 1110.46 134.048 1108.56 134.365C1103 135.291 1097.32 134.399 1091.77 135.448C1091.31 135.535 1090.83 135.482 1090.36 135.479C1085.58 135.457 1080.85 136.116 1076.1 136.473C1073.03 136.703 1069.95 137.028 1066.87 137.202C1063.9 137.371 1060.94 137.848 1057.97 138.165C1055.65 138.412 1053.33 138.637 1051 138.847C1042.34 139.625 1033.96 137.719 1025.53 136.259C1017.93 134.943 1010.61 132.563 1003.49 129.695C992.495 125.263 982.221 119.475 972.744 112.335C968.635 109.24 964.786 105.852 960.928 102.453C957.96 99.84 955.379 96.9295 952.685 94.0948C951.967 93.3398 951.27 92.5034 950.075 93.3145C950.236 94.0106 950.558 94.6112 951.149 95.0463C953.046 95.6974 953.264 95.9921 952.812 97.3084C952.902 98.069 953.272 98.6388 953.975 98.9784L953.978 98.97Z" fill="white"/>
<path d="M1267.91 167.472C1272.36 168.53 1276.21 170.941 1280.17 173.044C1285.54 175.895 1290.78 179.008 1295.76 182.499C1301.2 186.302 1306.48 190.288 1311.5 194.635C1315.46 198.062 1319.42 201.526 1323.05 205.25C1327.2 209.513 1331.23 213.939 1335.06 218.526C1339.86 224.257 1344.31 230.224 1348.69 236.255C1351.54 240.176 1353.94 244.406 1356.72 248.377C1361.01 254.515 1364.64 261.027 1368.08 267.651C1368.85 269.133 1369.68 270.589 1370.77 271.875C1371.59 271.297 1371.02 270.707 1370.74 270.174C1369.18 267.207 1367.62 264.238 1366.01 261.299C1360.71 251.669 1355.3 242.099 1349.01 233.061C1344.11 226.025 1339.01 219.151 1333.51 212.539C1328.43 206.418 1323.13 200.524 1317.4 195.008C1311.28 189.109 1304.76 183.67 1297.87 178.668C1288.91 172.162 1279.45 166.479 1269.42 161.758C1261.28 157.924 1252.86 154.761 1244.28 152.036C1243.64 151.834 1243.03 151.615 1242.25 152.12C1242.68 153.217 1243.68 153.692 1244.63 154.152C1251.65 157.565 1258.11 161.873 1264.6 166.15C1265.63 166.83 1266.59 167.571 1267.92 167.475L1267.91 167.472Z" fill="white"/>
<path d="M955.633 55.2084C956.288 58.3715 957.985 61.0968 959.479 63.881C963.89 72.0905 968.663 80.0951 974.046 87.7152C977.214 92.2003 980.529 96.5787 984.158 100.727C987.477 104.519 990.656 108.442 994.345 111.886C999.046 116.276 1003.85 120.564 1009.02 124.421C1009.9 125.083 1010.9 125.709 1010.96 127.009C1014.3 128.583 1018.03 128.723 1021.51 129.793C1021.86 129.902 1022.32 129.829 1022.51 129.481C1022.78 128.962 1022.4 128.608 1022 128.347C1018.86 126.315 1015.71 124.292 1012.57 122.263C1008.41 119.568 1004.59 116.433 1000.76 113.304C995.511 109.021 990.936 104.064 986.234 99.2563C983.119 96.0707 980.425 92.4697 977.66 88.953C971.88 81.5995 966.915 73.7212 962.12 65.7278C960.44 62.9268 958.999 59.9882 957.429 57.1198C957 56.3367 956.859 55.2618 955.63 55.214L955.633 55.2084Z" fill="white"/>
<path d="M952.244 47.9111C952.583 49.7158 953.377 51.3436 954.218 52.9547C954.523 53.5384 954.848 54.0717 955.602 54.1082C955.204 51.9218 953.786 50.1732 952.998 48.1524C952.939 47.9981 952.504 47.9869 952.244 47.9111Z" fill="#B3303A"/>
<path d="M1324.94 232.051C1324.79 234.024 1325.08 234.434 1327.27 235.391C1326.89 234.002 1326.23 232.809 1324.94 232.051Z" fill="#B3303A"/>
<path d="M947.073 88.9333C947.364 90.0672 948.076 90.9149 948.935 91.667C949.251 89.9858 948.887 89.4526 947.073 88.9333Z" fill="#B3303A"/>
<path d="M1299.59 193.863C1298.92 192.788 1298.19 191.775 1296.78 191.607C1297.01 193.226 1298.01 193.894 1299.59 193.863Z" fill="#B3303A"/>
<path d="M944.368 28.8005C944.69 29.8754 944.532 31.2142 945.975 31.6689C945.71 30.5631 945.854 29.2299 944.368 28.8005Z" fill="#B3303A"/>
<path d="M1371.33 272.997C1371.52 274.016 1371.68 275.06 1372.99 275.271C1372.84 274.227 1372.7 273.171 1371.33 272.997Z" fill="#B3303A"/>
<path d="M1311.47 213.496C1311.42 214.703 1311.71 215.66 1313.17 215.73C1313.1 214.607 1312.37 213.984 1311.47 213.496Z" fill="#B3303A"/>
<path d="M1374.16 278.611C1374.16 279.332 1374.53 279.714 1375.25 279.764C1375.28 279.009 1374.9 278.639 1374.16 278.611Z" fill="#B3303A"/>
<path d="M1373.03 276.365C1373.03 277.087 1373.4 277.466 1374.12 277.516C1374.15 276.764 1373.78 276.391 1373.03 276.365Z" fill="#B3303A"/>
<path d="M951.12 45.6602C951.126 46.3787 951.496 46.7576 952.21 46.8137C952.247 46.0559 951.869 45.6854 951.12 45.6602Z" fill="#B3303A"/>
<path d="M949.429 41.728C949.429 42.4437 949.796 42.8282 950.51 42.8872C950.556 42.1294 950.177 41.7589 949.429 41.728Z" fill="#B3303A"/>
<path d="M986.706 163.45C986.629 162.42 985.875 162.403 985.116 162.406C985.353 163.195 985.892 163.529 986.706 163.45Z" fill="#999DA6"/>
<path d="M1262.3 202.763C1261.62 200.554 1259.71 200.361 1257.86 200.066C1258.7 202 1260.6 202.213 1262.3 202.763Z" fill="#999DA6"/>
<path d="M58.7505 603.162C58.8042 603.836 59.1656 604.156 59.8462 604.108C59.8095 603.415 59.4593 603.084 58.7505 603.162Z" fill="#2C2F4C"/>
<path d="M966.963 116.933C967 115.358 966.308 114.365 964.687 114.118C964.822 115.552 965.856 116.273 966.963 116.933Z" fill="#B3303A"/>
<path d="M952.815 97.3C953.267 95.9865 953.049 95.689 951.151 95.0378C951.219 96.1437 951.922 96.7892 952.815 97.3Z" fill="#B3303A"/>
<path d="M111.152 607.617C111.229 607.617 111.311 607.627 111.387 607.613" stroke="white" stroke-width="3" stroke-linecap="round"/>
<path d="M111.172 607.605C111.347 607.605 111.522 607.606 111.696 607.604C111.851 607.601 112.005 607.611 112.159 607.612C112.197 607.612 112.235 607.609 112.272 607.604C112.316 607.598 112.35 607.585 112.391 607.57" stroke="white" stroke-width="3" stroke-linecap="round"/>
<path d="M112.34 607.445C112.32 607.44 112.299 607.441 112.279 607.441C111.859 607.44 111.44 607.456 111.02 607.458C110.902 607.459 110.783 607.466 110.665 607.455C110.608 607.45 110.536 607.455 110.5 607.41C110.477 607.381 110.518 607.331 110.548 607.308C110.624 607.247 110.714 607.205 110.804 607.167C111.061 607.061 111.246 607.022 111.523 607.016C111.615 607.014 111.708 607.025 111.799 607.039C112.139 607.091 111.821 607.058 112.02 607.113" stroke="white" stroke-width="3" stroke-linecap="round"/>
<path d="M111.488 607.285C111.434 607.293 111.376 607.307 111.32 607.304C111.287 607.302 111.275 607.302 111.237 607.291C111.21 607.283 111.183 607.274 111.158 607.263C111.125 607.25 111.017 607.197 110.987 607.17C110.944 607.13 110.965 607.108 111.011 607.083C111.046 607.064 111.085 607.053 111.122 607.041C111.203 607.015 111.274 606.997 111.359 606.991C111.388 606.989 111.427 606.986 111.453 607.007C111.473 607.022 111.469 607.06 111.473 607.082" stroke="white" stroke-width="3" stroke-linecap="round"/>
</g>
<defs>
<clipPath id="clip0_9_101">
<rect width="1412" height="842" fill="white" transform="matrix(-1 0 0 1 1412 -29)"/>
</clipPath>
</defs>
</svg>
