<svg width="229" height="149" viewBox="0 0 229 149" fill="none" xmlns="http://www.w3.org/2000/svg">
<path d="M135.596 24.4051L135.595 24.4048C134.377 23.1863 132.724 22.5017 131 22.5017C129.277 22.5017 127.624 23.1861 126.405 24.4045C126.405 24.4046 126.405 24.4047 126.405 24.4048M135.596 24.4051L125.344 34.656C123.844 33.1558 123.002 31.1213 123.002 29C123.002 26.8787 123.844 24.8442 125.344 23.344L126.405 24.4048M135.596 24.4051L137.94 26.7471L139 27.8064L140.06 26.7471L142.404 24.4051L142.414 24.3957L142.423 24.3861C143.023 23.7653 143.74 23.2701 144.533 22.9294C145.326 22.5888 146.179 22.4094 147.042 22.4019C147.905 22.3944 148.761 22.5589 149.56 22.8857C150.358 23.2126 151.084 23.6952 151.695 24.3055C152.305 24.9158 152.787 25.6415 153.114 26.4404C153.441 27.2392 153.606 28.0951 153.598 28.9582C153.591 29.8212 153.411 30.6742 153.071 31.4672C152.73 32.2602 152.235 32.9775 151.614 33.5771L151.605 33.5862L151.595 33.5954L139 46.1925L126.405 33.5955M135.596 24.4051L126.405 33.5955M126.405 24.4048C125.186 25.6237 124.502 27.2766 124.502 29C124.502 30.7235 125.186 32.3765 126.405 33.5954M126.405 24.4048L126.405 33.5954M126.405 33.5955C126.405 33.5955 126.405 33.5955 126.405 33.5954M126.405 33.5955L126.405 33.5954" stroke="#BE74D4" stroke-width="3"/>
<path d="M125 2.99976L131 15.9998" stroke="#BE74D4" stroke-width="2" stroke-linecap="round"/>
<path d="M153.47 2.99976L147.47 15.9998" stroke="#BE74D4" stroke-width="2" stroke-linecap="round"/>
<path d="M139.147 1.99332L139.32 16.3101" stroke="#BE74D4" stroke-width="2" stroke-linecap="round"/>
<path d="M36.534 65.751C36.612 66.531 36.651 67.519 36.651 68.715C36.651 69.885 36.417 71.328 35.949 73.044C35.481 74.734 34.636 76.229 33.414 77.529C30.918 80.207 27.486 81.546 23.118 81.546C17.814 81.546 13.628 80.246 10.56 77.646C7.49197 75.02 5.95797 71.601 5.95797 67.389C5.95797 63.151 7.50497 59.719 10.599 57.093C13.719 54.467 17.827 53.154 22.923 53.154C24.873 53.154 26.732 53.349 28.5 53.739C30.268 54.129 31.737 54.636 32.907 55.26L32.985 61.968H32.673C32.231 60.304 31.49 58.913 30.45 57.795C28.578 55.793 26.056 54.792 22.884 54.792C19.712 54.792 17.151 55.923 15.201 58.185C13.277 60.447 12.315 63.45 12.315 67.194C12.315 70.912 13.316 73.941 15.318 76.281C17.346 78.621 20.128 79.83 23.664 79.908C27.486 79.908 30.528 78.686 32.79 76.242C35.052 73.798 36.183 70.483 36.183 66.297C36.183 66.115 36.183 65.933 36.183 65.751H36.534ZM57.6452 80.61C58.3212 80.61 58.8412 80.441 59.2052 80.103C59.8032 79.505 60.1152 78.868 60.1412 78.192V68.247H47.5052V78.153C47.5052 78.829 47.7522 79.414 48.2462 79.908C48.7402 80.376 49.3252 80.61 50.0012 80.61H50.4692L50.5082 81H38.6522V80.61H39.1592C39.8352 80.61 40.4072 80.376 40.8752 79.908C41.3692 79.414 41.6292 78.829 41.6552 78.153V56.508C41.6292 55.832 41.3692 55.26 40.8752 54.792C40.4072 54.324 39.8352 54.09 39.1592 54.09H38.6522V53.7H50.5082L50.4692 54.09H50.0012C49.3252 54.09 48.7402 54.324 48.2462 54.792C47.7522 55.26 47.5052 55.832 47.5052 56.508V66.57H60.1412V56.508C60.1152 55.832 59.8552 55.26 59.3612 54.792C58.8932 54.324 58.3212 54.09 57.6452 54.09H57.1382V53.7H68.9942V54.09H68.4872C67.8112 54.09 67.2262 54.337 66.7322 54.831C66.2382 55.299 65.9912 55.871 65.9912 56.547V78.153C65.9912 78.829 66.2382 79.414 66.7322 79.908C67.2262 80.376 67.8112 80.61 68.4872 80.61H68.9942V81H57.1382V80.61H57.6452ZM98.7024 80.61H99.0534V81H86.6124V80.61H86.9634C87.5354 80.61 87.9514 80.441 88.2114 80.103C88.4974 79.739 88.6404 79.401 88.6404 79.089C88.6404 78.777 88.5754 78.465 88.4454 78.153L86.5344 73.356H77.4084L75.3804 78.153C75.2504 78.491 75.1854 78.816 75.1854 79.128C75.1854 79.414 75.3154 79.739 75.5754 80.103C75.8614 80.441 76.3034 80.61 76.9014 80.61H77.2134V81H68.8674V80.61H69.2184C69.8164 80.61 70.4144 80.428 71.0124 80.064C71.6104 79.7 72.1044 79.154 72.4944 78.426L81.5034 58.029C82.7254 55.455 83.3754 53.752 83.4534 52.92H83.8044L95.3874 78.348C95.7774 79.102 96.2714 79.674 96.8694 80.064C97.4674 80.428 98.0784 80.61 98.7024 80.61ZM78.0714 71.718H85.8714L82.0884 62.124L78.0714 71.718ZM129.7 54.09C129.05 54.09 128.491 54.324 128.023 54.792C127.555 55.234 127.308 55.78 127.282 56.43V76.554C127.282 78.296 127.399 79.765 127.633 80.961L127.75 81.546H127.399L107.704 62.787V78.27C107.704 78.92 107.938 79.479 108.406 79.947C108.874 80.389 109.433 80.61 110.083 80.61H110.824V81H99.0074V80.61H99.7094C100.385 80.61 100.957 80.389 101.425 79.947C101.893 79.479 102.127 78.907 102.127 78.231V57.99C102.127 56.274 102.01 54.844 101.776 53.7L101.698 53.115H102.049L121.744 71.874V56.469C121.718 55.793 121.471 55.234 121.003 54.792C120.535 54.324 119.976 54.09 119.326 54.09H118.624V53.7H130.441V54.09H129.7ZM133.117 80.61C133.793 80.61 134.365 80.376 134.833 79.908C135.327 79.414 135.587 78.829 135.613 78.153V56.508C135.587 55.832 135.327 55.26 134.833 54.792C134.365 54.324 133.793 54.09 133.117 54.09H132.61V53.7H144.466L144.427 54.09H143.959C143.283 54.09 142.698 54.324 142.204 54.792C141.71 55.26 141.463 55.832 141.463 56.508V78.153C141.463 78.829 141.71 79.414 142.204 79.908C142.698 80.376 143.283 80.61 143.959 80.61H144.427L144.466 81H132.61V80.61H133.117ZM161.967 55.299V78.192C161.993 78.868 162.24 79.44 162.708 79.908C163.202 80.376 163.787 80.61 164.463 80.61H164.931L164.97 81H153.114V80.61H153.621C154.271 80.61 154.83 80.376 155.298 79.908C155.792 79.44 156.065 78.881 156.117 78.231V55.299H150.852C149.656 55.325 148.707 55.702 148.005 56.43C147.303 57.158 146.952 58.107 146.952 59.277V59.745H146.562V52.959C146.926 53.115 147.576 53.271 148.512 53.427C149.474 53.583 150.358 53.661 151.164 53.661H166.881C168.155 53.635 169.195 53.531 170.001 53.349C170.807 53.167 171.301 53.037 171.483 52.959V59.745H171.093V59.277C171.093 58.107 170.742 57.158 170.04 56.43C169.338 55.702 168.389 55.325 167.193 55.299H161.967ZM198.259 80.61H198.61V81H186.169V80.61H186.52C187.092 80.61 187.508 80.441 187.768 80.103C188.054 79.739 188.197 79.401 188.197 79.089C188.197 78.777 188.132 78.465 188.002 78.153L186.091 73.356H176.965L174.937 78.153C174.807 78.491 174.742 78.816 174.742 79.128C174.742 79.414 174.872 79.739 175.132 80.103C175.418 80.441 175.86 80.61 176.458 80.61H176.77V81H168.424V80.61H168.775C169.373 80.61 169.971 80.428 170.569 80.064C171.167 79.7 171.661 79.154 172.051 78.426L181.06 58.029C182.282 55.455 182.932 53.752 183.01 52.92H183.361L194.944 78.348C195.334 79.102 195.828 79.674 196.426 80.064C197.024 80.428 197.635 80.61 198.259 80.61ZM177.628 71.718H185.428L181.645 62.124L177.628 71.718ZM194.844 58.575C196.066 58.107 196.677 57.288 196.677 56.118C196.677 55.416 196.378 54.727 195.78 54.051C195.182 53.349 194.883 52.582 194.883 51.75C194.883 50.918 195.13 50.255 195.624 49.761C196.118 49.241 196.716 48.981 197.418 48.981C198.848 48.981 199.836 49.605 200.382 50.853C200.746 51.633 200.928 52.283 200.928 52.803C200.928 54.285 200.616 55.507 199.992 56.469C198.874 58.211 197.418 59.082 195.624 59.082C195.39 59.082 195.169 59.056 194.961 59.004L194.844 58.575ZM203.381 77.373C203.381 75.501 203.784 73.902 204.59 72.576H204.941C204.915 72.784 204.902 72.992 204.902 73.2C204.902 74.994 205.539 76.567 206.813 77.919C208.113 79.245 209.881 79.908 212.117 79.908C213.859 79.908 215.211 79.492 216.173 78.66C217.161 77.828 217.655 76.775 217.655 75.501C217.655 73.967 216.615 72.628 214.535 71.484L207.749 66.999C206.397 66.219 205.422 65.283 204.824 64.191C204.252 63.073 203.966 61.942 203.966 60.798C203.966 58.354 204.733 56.469 206.267 55.143C207.827 53.817 209.816 53.154 212.234 53.154C213.664 53.154 215.432 53.284 217.538 53.544H219.995L219.488 59.277H219.098C219.098 57.925 218.591 56.846 217.577 56.04C216.589 55.208 215.263 54.792 213.599 54.792C211.571 54.792 210.102 55.416 209.192 56.664C208.724 57.262 208.49 57.938 208.49 58.692C208.49 59.94 209.4 61.097 211.22 62.163L218.669 66.999C221.009 68.351 222.179 70.34 222.179 72.966C222.179 75.748 221.23 77.88 219.332 79.362C217.46 80.818 214.964 81.546 211.844 81.546C210.076 81.546 208.438 81.338 206.93 80.922C205.448 80.48 204.356 79.895 203.654 79.167C203.472 78.673 203.381 78.075 203.381 77.373ZM61.9827 113.408C61.9827 114.63 61.6707 115.722 61.0467 116.684C60.4487 117.646 59.6687 118.309 58.7067 118.673C61.7227 118.829 63.9197 120.012 65.2977 122.222C65.9997 123.34 66.3507 124.718 66.3507 126.356C66.3507 127.994 65.7137 129.489 64.4397 130.841C63.1917 132.193 61.5927 133.155 59.6427 133.727C57.6927 134.299 55.6387 134.585 53.4807 134.585C48.0987 134.585 44.2507 133.155 41.9367 130.295C40.4547 128.475 39.7137 126.018 39.7137 122.924C39.7137 122.404 39.7397 121.884 39.7917 121.364L40.1817 121.325C40.3637 125.797 41.9627 128.995 44.9787 130.919V109.508C44.9527 108.546 44.5237 107.844 43.6917 107.402C43.3277 107.194 42.9247 107.09 42.4827 107.09H41.9757V106.7H51.8817C54.7677 106.7 57.1727 107.285 59.0967 108.455C61.0207 109.599 61.9827 111.25 61.9827 113.408ZM51.9207 132.752C54.3387 132.752 56.2237 132.115 57.5757 130.841C58.9537 129.567 59.6427 127.89 59.6427 125.81C59.6427 124.51 59.3957 123.418 58.9017 122.534C58.4337 121.624 57.8097 120.948 57.0297 120.506C55.5997 119.648 53.9747 119.219 52.1547 119.219V118.868C52.9867 118.868 53.6887 118.569 54.2607 117.971C55.2487 116.931 55.7427 115.514 55.7427 113.72C55.7427 111.926 55.3397 110.6 54.5337 109.742C53.7537 108.884 52.5187 108.429 50.8287 108.377V132.713C51.1927 132.739 51.5567 132.752 51.9207 132.752ZM79.1232 108.416H77.4462C77.3942 108.416 77.3552 108.416 77.3292 108.416V131.153C77.3552 132.115 77.7712 132.83 78.5772 133.298C78.9672 133.506 79.3832 133.61 79.8252 133.61H80.3322V134H68.4762V133.61H68.9832C69.9192 133.61 70.6342 133.207 71.1282 132.401C71.3362 132.037 71.4532 131.634 71.4792 131.192V109.547C71.4532 108.871 71.1932 108.299 70.6992 107.831C70.2312 107.337 69.6592 107.09 68.9832 107.09H68.4762V106.7H81.8532C84.3752 106.7 86.5072 107.246 88.2492 108.338C89.1332 108.884 89.8352 109.651 90.3552 110.639C90.8752 111.601 91.1352 112.706 91.1352 113.954C91.1352 115.176 90.9142 116.307 90.4722 117.347C90.0562 118.387 89.3412 119.297 88.3272 120.077C87.3392 120.857 86.1432 121.325 84.7392 121.481C86.2472 121.975 87.5732 123.119 88.7172 124.913C91.5252 129.411 93.6052 132.089 94.9572 132.947C95.6332 133.363 96.4782 133.584 97.4922 133.61V134H93.6702C91.4602 134 89.6142 133.701 88.1322 133.103C86.6502 132.479 85.4412 131.426 84.5052 129.944C84.0372 129.19 83.4392 128.059 82.7112 126.551C81.9832 125.017 81.5022 123.925 81.2682 123.275C80.5662 121.715 79.6822 120.844 78.6162 120.662V120.272H79.8252C80.9952 120.272 82.0222 119.921 82.9062 119.219C83.8162 118.517 84.4272 117.373 84.7392 115.787C84.8432 115.241 84.8952 114.812 84.8952 114.5C84.8952 112.368 84.4662 110.834 83.6082 109.898C82.7502 108.936 81.6452 108.442 80.2932 108.416C80.0332 108.416 79.6432 108.416 79.1232 108.416ZM97.5068 133.61C98.1828 133.61 98.7548 133.376 99.2228 132.908C99.7168 132.414 99.9768 131.829 100.003 131.153V109.508C99.9768 108.832 99.7168 108.26 99.2228 107.792C98.7548 107.324 98.1828 107.09 97.5068 107.09H96.9998V106.7H108.856L108.817 107.09H108.349C107.673 107.09 107.088 107.324 106.594 107.792C106.1 108.26 105.853 108.832 105.853 109.508V131.153C105.853 131.829 106.1 132.414 106.594 132.908C107.088 133.376 107.673 133.61 108.349 133.61H108.817L108.856 134H96.9998V133.61H97.5068ZM126.201 106.7C130.803 106.7 134.443 107.922 137.121 110.366C139.799 112.81 141.138 116.138 141.138 120.35C141.138 124.562 139.799 127.89 137.121 130.334C134.443 132.778 130.803 134 126.201 134H112.044V133.61H112.551C113.227 133.61 113.799 133.376 114.267 132.908C114.761 132.414 115.021 131.829 115.047 131.153V109.313C114.969 108.689 114.696 108.169 114.228 107.753C113.76 107.311 113.201 107.09 112.551 107.09H112.044V106.7H126.201ZM125.694 132.362C127.566 132.362 129.178 131.881 130.53 130.919C131.908 129.931 132.961 128.54 133.689 126.746C134.417 124.926 134.781 122.794 134.781 120.35C134.781 116.658 133.962 113.733 132.324 111.575C130.712 109.417 128.502 108.338 125.694 108.338H120.897V132.362H125.694ZM144.086 133.61C144.762 133.61 145.334 133.376 145.802 132.908C146.296 132.414 146.556 131.829 146.582 131.153V109.43C146.504 108.52 146.075 107.844 145.295 107.402C144.905 107.194 144.502 107.09 144.086 107.09H143.579V106.7H158.516C159.322 106.7 160.206 106.622 161.168 106.466C162.13 106.31 162.806 106.154 163.196 105.998V112.823H162.806V112.355C162.806 111.185 162.455 110.249 161.753 109.547C161.077 108.819 160.154 108.429 158.984 108.377H152.432V119.726H157.58C158.542 119.7 159.335 119.375 159.959 118.751C160.583 118.101 160.895 117.308 160.895 116.372V116.021H161.285V125.03H160.895V124.718C160.895 123.418 160.375 122.456 159.335 121.832C158.815 121.546 158.243 121.39 157.619 121.364H152.432V132.323H157.541C159.439 132.323 161.025 131.777 162.299 130.685C163.599 129.593 164.561 128.046 165.185 126.044H165.575L163.781 134H143.579V133.61H144.086ZM168.494 130.373C168.494 128.501 168.897 126.902 169.703 125.576H170.054C170.028 125.784 170.015 125.992 170.015 126.2C170.015 127.994 170.652 129.567 171.926 130.919C173.226 132.245 174.994 132.908 177.23 132.908C178.972 132.908 180.324 132.492 181.286 131.66C182.274 130.828 182.768 129.775 182.768 128.501C182.768 126.967 181.728 125.628 179.648 124.484L172.862 119.999C171.51 119.219 170.535 118.283 169.937 117.191C169.365 116.073 169.079 114.942 169.079 113.798C169.079 111.354 169.846 109.469 171.38 108.143C172.94 106.817 174.929 106.154 177.347 106.154C178.777 106.154 180.545 106.284 182.651 106.544H185.108L184.601 112.277H184.211C184.211 110.925 183.704 109.846 182.69 109.04C181.702 108.208 180.376 107.792 178.712 107.792C176.684 107.792 175.215 108.416 174.305 109.664C173.837 110.262 173.603 110.938 173.603 111.692C173.603 112.94 174.513 114.097 176.333 115.163L183.782 119.999C186.122 121.351 187.292 123.34 187.292 125.966C187.292 128.748 186.343 130.88 184.445 132.362C182.573 133.818 180.077 134.546 176.957 134.546C175.189 134.546 173.551 134.338 172.043 133.922C170.561 133.48 169.469 132.895 168.767 132.167C168.585 131.673 168.494 131.075 168.494 130.373Z" fill="#BE74D4"/>
</svg>
