<svg width="398" height="290" viewBox="0 0 398 290" fill="none" xmlns="http://www.w3.org/2000/svg">
<path fill-rule="evenodd" clip-rule="evenodd" d="M176.74 0.100609V0H177.747V0.259897C182.227 1.51066 186.92 4.67887 187.715 11.1274C188.816 20.0384 189.006 32.381 189.184 43.923C189.276 49.8805 189.364 55.6247 189.573 60.5738C189.637 62.0509 190.398 62.0869 190.973 62.1142C191.326 62.1309 191.609 62.1443 191.619 62.4853C191.712 63.2459 191.803 64.7126 191.894 66.1787L191.894 66.1794C192.055 68.7958 192.217 71.4102 192.396 70.0076C192.503 69.2125 192.563 68.172 192.628 67.0462C192.839 63.4016 193.101 58.8628 195.188 58.8628C197.605 58.8672 197.476 66.8421 197.392 72.0622V72.0631C197.365 73.7391 197.342 75.131 197.41 75.8838C198.831 75.9133 200.585 75.9428 200.585 75.9428C200.585 75.9428 201.574 76.2142 201.878 76.5033C202.218 76.8218 202.473 77.7658 202.473 77.7658L215.039 156.062L221.553 171.827H221.911C234.936 172.516 234.905 173.549 234.657 181.846V181.846V181.846V181.847V181.847V181.847C234.614 183.275 234.564 184.919 234.574 186.812L239.995 197.798L279.278 248.418L286.879 223.232L289.009 213.91C289.009 213.91 288.342 197.768 289.884 187.65C290.181 185.685 292.3 182.275 294.121 181.815V181.7H294.959V181.791C297.156 182.193 299.427 185.514 299.9 188.358C301.4 197.438 301.94 213.562 301.94 213.562L304.319 223.126L308.599 235.934L312.199 233.326L327.309 185.125C327.309 185.125 327.163 168.529 329.488 151.366C329.743 149.46 331.989 146.257 334.284 145.484V145.274H336.123V145.431C338.558 146.08 341.472 149.106 341.854 151.16C344.671 166.21 346.219 185.078 346.219 185.078L362.864 229.279L398 264.689V290H0V262.613L36.539 200.789L46.088 150.363C47.7757 146.08 50.4832 143.897 53.1664 143.614V143.522H54.5019V143.626C57.7072 144.038 60.6454 147.177 61.4831 152.723L64.7127 197.373L67.8329 155.732L69.642 131.602C70.334 125.938 73.4361 122.481 76.7142 121.932V121.828H78.3533V121.914C81.5222 122.339 84.5028 125.607 85.2495 132.369L92.601 200.458H92.6739L101.179 216.712L120.841 183.414C121.137 182.417 121.233 181.231 121.331 180.009C121.537 177.443 121.757 174.721 123.871 173.278C127.197 172.092 134.245 171.827 134.245 171.827L143.066 151.549C143.066 151.549 147.649 112.716 153.113 79.0402C153.343 77.6301 154.928 76.928 156.743 76.5091C157.081 75.1075 157.015 72.5403 156.944 69.7544C156.826 65.1292 156.693 59.9012 158.364 58.4026C160.161 56.9335 160.92 58.8569 161.508 61.6003C162.081 64.2912 162.474 67.7757 162.682 69.6167L162.723 69.9781C162.723 69.9781 163.178 65.4706 163.402 62.5679C163.46 61.843 164.009 61.6923 164.523 61.5512C164.989 61.4236 165.425 61.3039 165.442 60.7743C165.556 56.4966 165.531 51.02 165.505 45.0988C165.452 33.2905 165.391 19.7144 166.401 10.3545C166.984 4.92666 171.901 0.649292 176.74 0.100609Z" fill="#B284BE"/>
</svg>
