<svg width="1354" height="290" viewBox="0 0 1354 290" fill="none" xmlns="http://www.w3.org/2000/svg">
<path fill-rule="evenodd" clip-rule="evenodd" d="M176.74 0.0770874V0.100603C171.901 0.649286 166.984 4.92666 166.401 10.3545C165.391 19.7144 165.452 33.2905 165.505 45.0988C165.531 51.0199 165.556 56.4966 165.442 60.7743C165.425 61.3039 164.989 61.4236 164.523 61.5512C164.009 61.6923 163.46 61.843 163.402 62.5679C163.178 65.4706 162.723 69.9781 162.723 69.9781L162.682 69.6167C162.474 67.7757 162.081 64.2912 161.508 61.6003C160.92 58.8569 160.161 56.9335 158.364 58.4026C156.693 59.9012 156.826 65.1292 156.944 69.7544C157.015 72.5403 157.081 75.1075 156.743 76.5091C154.928 76.928 153.343 77.6301 153.113 79.0402C147.649 112.716 143.066 151.549 143.066 151.549L134.245 171.827C134.245 171.827 127.197 172.092 123.871 173.278C121.757 174.721 121.537 177.443 121.331 180.009C121.233 181.231 121.137 182.417 120.841 183.414L101.179 216.712L92.6739 200.458H92.601L85.2495 132.369C84.5028 125.607 81.5222 122.339 78.3533 121.914V121.905H76.7142V121.932C73.4361 122.481 70.334 125.938 69.642 131.602L67.8329 155.732L64.7127 197.373L61.4831 152.723C60.6454 147.177 57.7072 144.038 54.5019 143.625V143.599H53.1664V143.614C50.4832 143.897 47.7757 146.08 46.088 150.363L36.539 200.789L0 262.613V290H1354V265.191H398.499L362.864 229.279L346.219 185.078C346.219 185.078 344.671 166.21 341.854 151.16C341.472 149.106 338.558 146.08 336.123 145.431V145.352H334.284V145.484C331.989 146.257 329.743 149.46 329.488 151.366C327.163 168.529 327.309 185.125 327.309 185.125L312.199 233.326L308.599 235.934L304.319 223.126L301.94 213.562C301.94 213.562 301.4 197.438 299.9 188.358C299.427 185.514 297.156 182.193 294.959 181.791V181.777H294.121V181.815C292.3 182.275 290.181 185.685 289.884 187.65C288.342 197.768 289.009 213.91 289.009 213.91L286.879 223.232L279.278 248.418L239.995 197.798L234.574 186.812C234.564 184.918 234.614 183.275 234.657 181.847V181.847V181.846V181.846V181.846C234.905 173.549 234.936 172.516 221.911 171.827H221.553L215.039 156.062L202.473 77.7658C202.473 77.7658 202.218 76.8218 201.878 76.5033C201.574 76.2142 200.585 75.9428 200.585 75.9428C200.585 75.9428 198.831 75.9133 197.41 75.8838C197.342 75.131 197.365 73.7391 197.392 72.0631V72.0622C197.476 66.8421 197.605 58.8672 195.188 58.8628C193.101 58.8628 192.839 63.4016 192.628 67.0462C192.563 68.172 192.503 69.2125 192.396 70.0075C192.217 71.4102 192.055 68.7958 191.894 66.1794L191.894 66.1787C191.803 64.7126 191.712 63.2459 191.619 62.4853C191.609 62.1443 191.326 62.1309 190.973 62.1141C190.398 62.0869 189.637 62.0509 189.573 60.5737C189.364 55.6247 189.276 49.8805 189.184 43.923C189.006 32.381 188.816 20.0384 187.715 11.1274C186.92 4.67886 182.227 1.51065 177.747 0.259892V0.0770874H176.74Z" fill="#b283be"/>
</svg>
