<svg width="398" height="290" viewBox="0 0 398 290" fill="none" xmlns="http://www.w3.org/2000/svg">
<path fill-rule="evenodd" clip-rule="evenodd" d="M176.74 0.0235157V0H177.747V0.182804C182.227 1.43357 186.92 4.60178 187.715 11.0503C188.816 19.9613 189.006 32.3039 189.184 43.8459C189.276 49.8034 189.364 55.5476 189.573 60.4967C189.637 61.9738 190.398 62.0098 190.973 62.0371C191.326 62.0538 191.609 62.0672 191.619 62.4082C191.712 63.1688 191.803 64.6355 191.894 66.1017L191.894 66.1023C192.055 68.7187 192.217 71.3331 192.396 69.9305C192.503 69.1354 192.563 68.0949 192.628 66.9691C192.839 63.3245 193.101 58.7857 195.188 58.7857C197.605 58.7902 197.476 66.765 197.392 71.9851V71.986C197.365 73.662 197.342 75.0539 197.41 75.8067C198.831 75.8362 200.585 75.8657 200.585 75.8657C200.585 75.8657 201.574 76.1371 201.878 76.4262C202.218 76.7448 202.473 77.6887 202.473 77.6887L215.039 155.985L221.553 171.75H221.911C234.936 172.439 234.905 173.472 234.657 181.769V181.769V181.769V181.77V181.77V181.77C234.614 183.198 234.564 184.841 234.574 186.735L239.995 197.721L279.278 248.341L286.879 223.155L289.009 213.833C289.009 213.833 288.342 197.691 289.884 187.573C290.181 185.608 292.3 182.198 294.121 181.738V181.7H294.959V181.714C297.156 182.115 299.427 185.437 299.9 188.281C301.4 197.361 301.94 213.485 301.94 213.485L304.319 223.048L308.599 235.857L312.199 233.249L327.309 185.048C327.309 185.048 327.163 168.452 329.488 151.289C329.743 149.383 331.989 146.18 334.284 145.407V145.274H336.123V145.354C338.558 146.003 341.472 149.029 341.854 151.082C344.671 166.133 346.219 185.001 346.219 185.001L362.864 229.202L398 264.611V289.923H0V262.536L36.539 200.712L46.088 150.286C47.7757 146.003 50.4832 143.82 53.1664 143.537V143.522H54.5019V143.548C57.7072 143.961 60.6454 147.1 61.4831 152.646L64.7127 197.296L67.8329 155.655L69.642 131.525C70.334 125.861 73.4361 122.403 76.7142 121.855V121.828H78.3533V121.837C81.5222 122.262 84.5028 125.53 85.2495 132.292L92.601 200.381H92.6739L101.179 216.635L120.841 183.337C121.137 182.34 121.233 181.154 121.331 179.932C121.537 177.365 121.757 174.644 123.871 173.201C127.197 172.015 134.245 171.75 134.245 171.75L143.066 151.472C143.066 151.472 147.649 112.639 153.113 78.9631C153.343 77.553 154.928 76.8509 156.743 76.4321C157.081 75.0304 157.015 72.4632 156.944 69.6773C156.826 65.0521 156.693 59.8241 158.364 58.3255C160.161 56.8565 160.92 58.7798 161.508 61.5232C162.081 64.2141 162.474 67.6987 162.682 69.5396L162.723 69.901C162.723 69.901 163.178 65.3935 163.402 62.4908C163.46 61.7659 164.009 61.6152 164.523 61.4741C164.989 61.3465 165.425 61.2268 165.442 60.6972C165.556 56.4195 165.531 50.9429 165.505 45.0217C165.452 33.2134 165.391 19.6373 166.401 10.2774C166.984 4.84957 171.901 0.572199 176.74 0.0235157Z" fill="#B284BE"/>
</svg>
